<svg width="91" height="91" viewBox="0 0 91 91" fill="none" xmlns="http://www.w3.org/2000/svg">
<path d="M6.06872 32.4031C13.3887 10.5761 37.0117 -1.18187 58.8307 6.14113C80.6497 13.4641 92.4027 37.0961 85.0827 58.9231C77.7617 80.7501 54.1397 92.5081 32.3207 85.1851C10.5017 77.8621 -1.25128 54.2301 6.06872 32.4031Z" fill="#FDF6EE" stroke="#1C1C1C" stroke-width="7.27" stroke-miterlimit="10"/>
<path d="M68.9729 53.5195C64.6379 66.4465 50.6478 73.4095 37.7258 69.0725C24.8028 64.7355 17.8419 50.7395 22.1779 37.8125" stroke="#1C1C1C" stroke-width="7.27" stroke-miterlimit="10" stroke-linecap="round"/>
<path d="M52.1099 49.379C54.5759 50.207 58.4749 45.211 60.8189 38.221C63.1629 31.231 63.0648 24.894 60.5988 24.066C58.1318 23.238 54.2329 28.234 51.8889 35.223C49.5449 42.213 49.6429 48.551 52.1099 49.379ZM37.0969 44.34C39.5629 45.168 43.4629 40.172 45.8069 33.183C48.1509 26.193 48.0518 19.856 45.5858 19.027C43.1208 18.2 39.2209 23.196 36.8769 30.185C34.5329 37.175 34.6309 43.512 37.0969 44.34Z" fill="#1C1C1C"/>
</svg>
