<svg width="144" height="94" viewBox="0 0 144 94" fill="none" xmlns="http://www.w3.org/2000/svg">
<g filter="url(#filter0_d_2729_3)">
<path fill-rule="evenodd" clip-rule="evenodd" d="M34.9155 20.6278C34.9155 20.6968 35.104 20.9778 35.3344 21.2528L35.7522 21.7528L35.4002 21.1278C35.0581 20.5198 34.9135 20.3718 34.9155 20.6278ZM105.83 24.7417C105.665 24.8677 105.595 25.0117 105.676 25.0617C105.757 25.1117 105.947 25.0058 106.1 24.8278C106.419 24.4538 106.271 24.4067 105.83 24.7417ZM105.146 25.8778C104.908 26.1758 104.64 26.5098 104.55 26.6208C104.46 26.7318 104.386 26.8838 104.386 26.9588C104.386 27.0338 104.166 27.3368 103.897 27.6328C103.628 27.9278 103.452 28.1698 103.507 28.1698C103.562 28.1698 103.492 28.3008 103.351 28.4608C103.212 28.6218 102.965 29.0148 102.804 29.3358C102.643 29.6568 102.466 29.9568 102.41 30.0028C102.354 30.0488 102.179 30.3678 102.02 30.7108C101.862 31.0548 101.659 31.3358 101.568 31.3358C101.479 31.3358 101.445 31.4388 101.493 31.5648C101.54 31.6908 101.477 31.8968 101.351 32.0228C101.224 32.1498 101.106 32.3078 101.087 32.3758C101.068 32.4428 100.892 32.8558 100.698 33.2928C100.502 33.7288 100.355 34.1428 100.37 34.2108C100.385 34.2798 100.323 34.3358 100.231 34.3358C100.139 34.3358 100.073 34.3928 100.083 34.4608C100.113 34.6748 99.8651 35.3358 99.7544 35.3358C99.6966 35.3368 99.6378 35.5338 99.6238 35.7748C99.6098 36.0158 99.5181 36.2628 99.4204 36.3238C99.3226 36.3838 99.211 36.5808 99.1721 36.7598C99.0265 37.4348 98.8579 37.8358 98.7213 37.8358C98.6435 37.8358 98.6226 37.9488 98.6755 38.0858C98.7273 38.2238 98.7004 38.3358 98.6146 38.3358C98.5289 38.3358 98.4581 38.5758 98.4581 38.8688C98.4581 39.1618 98.3753 39.4287 98.2736 39.4627C98.1719 39.4967 98.127 39.6247 98.1739 39.7467C98.2207 39.8687 98.1799 40.0188 98.0821 40.0788C97.9844 40.1398 97.9046 40.3388 97.9046 40.5228C97.9046 40.7238 97.8318 40.8107 97.7201 40.7417C97.5965 40.6647 97.5726 40.7438 97.6483 40.9818C97.7182 41.2008 97.6882 41.3358 97.5716 41.3358C97.4619 41.3358 97.425 41.4688 97.4848 41.6558C97.5397 41.8308 97.5107 42.0207 97.42 42.0777C97.3282 42.1337 97.2933 42.2827 97.3412 42.4077C97.3891 42.5327 97.3472 42.6858 97.2485 42.7478C97.1488 42.8088 97.1079 42.9238 97.1567 43.0028C97.2046 43.0818 97.1687 43.1938 97.076 43.2508C96.9832 43.3088 96.9074 43.5437 96.9074 43.7727C96.9074 44.0017 96.8396 44.1468 96.7568 44.0958C96.6731 44.0448 96.6452 44.1528 96.693 44.3358C96.7409 44.5198 96.703 44.6698 96.6093 44.6698C96.5165 44.6698 96.4786 44.8198 96.5265 45.0028C96.5744 45.1858 96.5454 45.3358 96.4617 45.3358C96.3789 45.3358 96.2114 45.7858 96.0897 46.3358C95.9681 46.8858 95.7975 47.3358 95.7118 47.3358C95.626 47.3358 95.6021 47.4858 95.6609 47.6698C95.7237 47.8688 95.6908 48.0028 95.5772 48.0028C95.4645 48.0028 95.4316 48.1368 95.4944 48.3358C95.5592 48.5398 95.5243 48.6698 95.4046 48.6698C95.297 48.6698 95.2521 48.7798 95.3029 48.9138C95.3548 49.0488 95.3319 49.1988 95.2521 49.2488C95.1733 49.2978 95.0576 49.6377 94.9958 50.0037C94.934 50.3697 94.8223 50.6698 94.7475 50.6698C94.6727 50.6698 94.6508 50.8198 94.6986 51.0028C94.7465 51.1858 94.7036 51.3358 94.6049 51.3358C94.5062 51.3358 94.4643 51.4408 94.5141 51.5688C94.563 51.6978 94.5221 51.8528 94.4224 51.9138C94.3237 51.9758 94.2878 52.0987 94.3426 52.1877C94.3975 52.2777 94.3666 52.4418 94.2748 52.5538C94.1821 52.6658 94.0175 53.1127 93.9078 53.5467C93.7992 53.9807 93.6466 54.3358 93.5688 54.3358C93.491 54.3358 93.4701 54.4488 93.5229 54.5858C93.5758 54.7238 93.5329 54.8358 93.4272 54.8358C93.3225 54.8358 93.2517 54.9298 93.2696 55.0448C93.2886 55.1588 93.2168 55.4638 93.1111 55.7218C93.0054 55.9798 92.9186 56.2608 92.9186 56.3468C92.9186 56.4328 92.8389 56.5028 92.7421 56.5028C92.6454 56.5028 92.6085 56.5708 92.6594 56.6548C92.7112 56.7378 92.5716 57.1688 92.3502 57.6128C92.1288 58.0568 91.8955 58.6258 91.8327 58.8778C91.7699 59.1298 91.6482 59.3358 91.5604 59.3358C91.4737 59.3358 91.4488 59.4108 91.5056 59.5028C91.5624 59.5948 91.5435 59.6698 91.4647 59.6698C91.3859 59.6698 91.1875 60.0448 91.023 60.5028C90.8584 60.9608 90.653 61.3358 90.5652 61.3358C90.4775 61.3358 90.4516 61.4108 90.5084 61.5028C90.5652 61.5948 90.5323 61.6698 90.4356 61.6698C90.3379 61.6698 90.2591 61.7847 90.2591 61.9257C90.2591 62.2017 89.7904 63.0098 89.5152 63.2088C89.4214 63.2758 89.3985 63.3318 89.4643 63.3338C89.575 63.3358 88.9867 64.3248 88.5998 64.7878C88.507 64.8978 88.4312 65.0328 88.4312 65.0858C88.4312 65.1878 88.2118 65.4768 87.7242 66.0148C87.5647 66.1918 87.4829 66.3358 87.5427 66.3358C87.6026 66.3358 87.5158 66.4858 87.3503 66.6698C87.1847 66.8528 86.9514 67.0028 86.8317 67.0028C86.7111 67.0028 86.6472 67.0968 86.6881 67.2108C86.7649 67.4268 85.7488 68.6698 85.4955 68.6698C85.2552 68.6698 84.4424 69.5018 84.4424 69.7478C84.4424 69.8758 84.1991 70.1467 83.902 70.3507C83.6048 70.5547 83.2867 70.8098 83.1959 70.9188C82.8878 71.2838 80.7707 72.6667 80.3609 72.7697C80.1375 72.8257 79.955 72.9517 79.955 73.0487C79.955 73.1457 79.9082 73.1788 79.8513 73.1218C79.7955 73.0648 79.6359 73.1317 79.4983 73.2707C79.3597 73.4087 79.1443 73.4828 79.0197 73.4338C78.894 73.3858 78.7913 73.4108 78.7913 73.4888C78.7913 73.6278 78.1651 73.8897 77.9188 73.8537C77.8499 73.8437 77.7941 73.9088 77.7941 73.9978C77.7941 74.0868 77.6824 74.1157 77.5448 74.0627C77.4072 74.0097 77.2955 74.0578 77.2955 74.1698C77.2955 74.2808 77.1838 74.3288 77.0462 74.2758C76.9086 74.2228 76.7969 74.2618 76.7969 74.3608C76.7969 74.4598 76.6473 74.5028 76.4648 74.4548C76.2814 74.4068 76.1318 74.4357 76.1318 74.5187C76.1318 74.6017 75.9493 74.6698 75.7269 74.6698C75.5035 74.6698 75.2722 74.7477 75.2134 74.8427C75.1555 74.9387 74.97 74.9728 74.8025 74.9198C74.635 74.8658 74.4465 74.9068 74.3827 75.0098C74.3199 75.1128 74.0935 75.1528 73.8801 75.0988C73.6677 75.0458 73.4423 75.0837 73.3805 75.1847C73.3087 75.3017 73.0026 75.3277 72.5389 75.2587C72.0981 75.1917 71.8109 75.2137 71.8109 75.3127C71.8109 75.4137 70.8446 75.4777 69.3179 75.4777C67.7912 75.4777 66.8249 75.4137 66.8249 75.3127C66.8249 75.2137 66.5377 75.1917 66.097 75.2587C65.6333 75.3277 65.3271 75.3017 65.2553 75.1847C65.1935 75.0837 64.9641 75.0467 64.7467 75.1007C64.5294 75.1557 64.2531 75.1397 64.1335 75.0647C64.0138 74.9897 63.8413 74.9197 63.7505 74.9097C63.243 74.8547 62.504 74.6098 62.504 74.4978C62.504 74.4258 62.3545 74.4068 62.171 74.4548C61.9885 74.5028 61.8389 74.4767 61.8389 74.3967C61.8379 74.3177 61.6056 74.2448 61.3224 74.2338C61.0392 74.2238 60.758 74.1418 60.6991 74.0518C60.6403 73.9608 60.387 73.8368 60.1357 73.7748C59.8844 73.7138 59.678 73.5917 59.678 73.5047C59.678 73.4177 59.5763 73.3858 59.4506 73.4338C59.325 73.4828 59.1036 73.4027 58.958 73.2567C58.8124 73.1107 58.6339 72.9838 58.5621 72.9748C58.2669 72.9368 57.0195 72.2598 57.0195 72.1358C57.0195 72.0628 56.9367 72.0028 56.835 72.0028C56.0472 72.0028 50.756 66.6718 51.1509 66.2758C51.2098 66.2178 51.1789 66.1698 51.0841 66.1698C50.9884 66.1698 50.8169 65.9448 50.7032 65.6698C50.5895 65.3948 50.4409 65.1698 50.3731 65.1698C50.2186 65.1698 49.2981 63.1648 49.3211 62.8778C49.33 62.7628 49.2662 62.6698 49.1795 62.6698C49.0927 62.6698 49.0648 62.5998 49.1176 62.5148C49.1705 62.4288 49.1316 62.3088 49.0329 62.2478C48.9342 62.1858 48.8933 62.0308 48.9421 61.9028C48.991 61.7748 48.9621 61.6698 48.8773 61.6698C48.7936 61.6698 48.6749 61.4058 48.6151 61.0838C48.5542 60.7628 48.4376 60.4568 48.3548 60.4058C48.273 60.3548 48.2501 60.2398 48.3049 60.1508C48.3608 60.0618 48.3229 59.8888 48.2222 59.7668C48.1214 59.6448 48.0855 59.4228 48.1424 59.2738C48.2032 59.1148 48.1623 59.0028 48.0437 59.0028C47.913 59.0028 47.8781 58.8608 47.9429 58.5998C47.9988 58.3788 47.9749 58.1718 47.8891 58.1418C47.8043 58.1108 47.6498 57.2988 47.5451 56.3368C47.3556 54.6068 47.212 53.9928 47.215 54.9338C47.217 55.5538 47.7983 60.2998 48.0427 61.6928C48.3348 63.3558 49.1186 66.0728 49.9274 68.2228C50.6105 70.0428 50.6753 70.8638 50.0879 70.2748C50.0321 70.2188 49.8715 70.2657 49.7309 70.3787C49.5195 70.5507 49.5016 70.5438 49.6262 70.3358C49.7379 70.1508 49.6551 70.1657 49.3051 70.3947C49.0179 70.5837 48.8873 70.6167 48.9701 70.4787C49.0817 70.2927 49.0558 70.2927 48.8245 70.4817C48.6699 70.6077 48.5433 70.6548 48.5433 70.5858C48.5433 70.5178 48.4306 70.5558 48.294 70.6698C48.0925 70.8368 48.0437 70.8327 48.0417 70.6477C48.0397 70.4687 48.0048 70.4728 47.8781 70.6698C47.7894 70.8068 47.7156 70.8647 47.7146 70.7977C47.7126 70.7297 47.4443 70.8258 47.1183 71.0098C46.7912 71.1938 46.5708 71.2687 46.6276 71.1757C46.6895 71.0767 46.6256 71.0477 46.4741 71.1057C46.3325 71.1607 46.2148 71.2907 46.2138 71.3957C46.2118 71.5007 46.139 71.4738 46.0503 71.3358C45.9585 71.1948 45.8877 71.1698 45.8867 71.2798C45.8847 71.3878 45.6972 71.4528 45.4639 71.4268C45.2146 71.3998 44.9803 71.4898 44.8875 71.6498C44.7559 71.8758 44.729 71.8788 44.723 71.6698C44.716 71.4608 44.6911 71.4578 44.5684 71.6518C44.4797 71.7928 44.2782 71.8458 44.0539 71.7878C43.7816 71.7158 43.664 71.7748 43.6011 72.0168C43.5343 72.2728 43.4665 72.3018 43.287 72.1528C43.1145 72.0088 43.0587 72.0107 43.0587 72.1587C43.0587 72.2667 42.9889 72.3128 42.9041 72.2598C42.8183 72.2068 42.7017 72.2398 42.6448 72.3338C42.587 72.4268 42.4514 72.5018 42.3417 72.4998C42.223 72.4988 42.2439 72.4328 42.3935 72.3358C42.5461 72.2378 42.565 72.1737 42.4434 72.1717C42.3337 72.1707 42.1672 72.3008 42.0744 72.4608C41.9408 72.6908 41.9039 72.6998 41.8979 72.5028C41.8909 72.2808 41.872 72.2808 41.7284 72.5028C41.6396 72.6408 41.5668 72.6698 41.5649 72.5688C41.5639 72.4678 41.3893 72.1978 41.1779 71.9688C40.3174 71.0378 38.8714 68.3737 38.1834 66.4507C38.1235 66.2837 37.9919 66.1998 37.8892 66.2628C37.7595 66.3438 37.7715 66.4247 37.9301 66.5367C38.0966 66.6537 38.1036 66.7158 37.957 66.7758C37.8483 66.8208 37.7994 66.9658 37.8503 67.0968C37.9001 67.2288 37.8543 67.3358 37.7476 67.3358C37.6409 67.3358 37.596 67.4048 37.6479 67.4888C37.6997 67.5728 37.6857 67.6658 37.6159 67.6968C37.5471 67.7278 37.2779 68.1787 37.0186 68.6997C36.7594 69.2207 36.2358 69.9928 35.8559 70.4138C35.475 70.8348 34.9544 71.4358 34.6981 71.7498C34.4419 72.0628 34.1337 72.2808 34.0131 72.2348C33.8884 72.1868 33.7568 72.2977 33.7059 72.4927C33.6571 72.6807 33.4845 72.8858 33.323 72.9478C33.1605 73.0098 32.8922 73.1977 32.7247 73.3647C32.5582 73.5327 32.3088 73.6698 32.1722 73.6698C32.0346 73.6698 31.9229 73.7488 31.9229 73.8458C31.9229 73.9428 31.8541 73.9798 31.7714 73.9278C31.6876 73.8768 31.5929 73.9127 31.561 74.0087C31.529 74.1057 31.3356 74.1967 31.1312 74.2127C30.9267 74.2277 30.7592 74.3078 30.7592 74.3908C30.7592 74.4738 30.6096 74.5028 30.4271 74.4548C30.2436 74.4068 30.131 74.4268 30.1758 74.4998C30.2516 74.6228 29.9176 74.7158 28.682 74.9128C27.6958 75.0698 24.9236 75.1067 24.8348 74.9627C24.785 74.8827 24.5835 74.8298 24.3861 74.8468C23.8646 74.8918 22.9481 74.6528 22.9481 74.4718C22.9481 74.3868 22.8684 74.3657 22.7716 74.4257C22.3179 74.7067 19.9904 73.2408 19.0082 72.0558C18.1277 70.9918 17.9003 70.5558 18.1716 70.4458C18.2992 70.3938 18.2733 70.3578 18.1027 70.3488C17.8854 70.3388 17.5284 69.7448 17.3947 69.1698C17.3838 69.1238 17.316 68.9928 17.2432 68.8778C17.1714 68.7628 17.1544 68.5998 17.2073 68.5148C17.2601 68.4288 17.2212 68.3088 17.1225 68.2478C17.0238 68.1858 16.9869 68.0178 17.0427 67.8738C17.0976 67.7308 17.0467 67.5537 16.929 67.4807C16.7595 67.3757 16.6987 64.5627 16.6329 53.7167C16.5671 42.9637 16.5232 40.9128 16.4255 44.0028C16.3567 46.1568 16.3008 49.2178 16.3008 50.8048C16.2998 52.5278 16.238 53.6508 16.1462 53.5938C16.0625 53.5418 15.9588 53.6308 15.9169 53.7928C15.8511 54.0428 15.8371 54.0368 15.8182 53.7528C15.8002 53.4728 15.7693 53.4598 15.6297 53.6698C15.4841 53.8888 15.4422 53.8848 15.2976 53.6378C15.1461 53.3808 14.5727 53.3458 14.3403 53.5798C14.2924 53.6278 14.1528 53.5827 14.0302 53.4807C13.9075 53.3787 13.8058 53.3608 13.8048 53.4408C13.8028 53.5208 13.728 53.4738 13.6383 53.3358C13.4927 53.1138 13.4568 53.1138 13.3112 53.3358C13.1656 53.5588 13.1467 53.5588 13.1427 53.3358C13.1377 53.1138 13.1197 53.1138 12.9761 53.3358C12.8325 53.5588 12.8146 53.5588 12.8096 53.3358C12.8056 53.1138 12.7867 53.1138 12.6411 53.3358C12.4955 53.5588 12.4596 53.5588 12.317 53.3358C12.1345 53.0508 11.8513 53.0048 11.4564 53.1968C11.2829 53.2808 11.1094 53.2408 10.9817 53.0858C10.8222 52.8938 10.7065 52.8827 10.4243 53.0347C10.0185 53.2517 10.0185 53.2517 9.56872 52.8567C9.21072 52.5417 9.02524 52.5137 8.68919 52.7277C8.56354 52.8077 8.36609 52.7748 8.21552 52.6498C7.90938 52.3948 7.44867 52.2987 7.58329 52.5177C7.63514 52.6007 7.60224 52.6698 7.51149 52.6698C7.41975 52.6698 7.2961 52.5907 7.23726 52.4947C7.16247 52.3737 7.06275 52.3758 6.91218 52.5008C6.75263 52.6338 6.62498 52.6108 6.42853 52.4138C6.23109 52.2148 6.16128 52.2027 6.15929 52.3657C6.1573 52.5287 6.11442 52.5208 5.99575 52.3358C5.85215 52.1138 5.8342 52.1138 5.82922 52.3358C5.82523 52.5588 5.80628 52.5588 5.66069 52.3358C5.53903 52.1498 5.46424 52.1367 5.36851 52.2857C5.28275 52.4167 5.15611 52.4318 4.99456 52.3298C4.77917 52.1938 4.78016 52.1738 4.99855 52.1698C5.18403 52.1658 5.195 52.1307 5.04143 52.0327C4.88088 51.9307 4.82205 49.4048 4.78016 40.7438C4.74925 34.6068 4.73031 38.3048 4.73729 48.9608C4.74427 59.9588 4.81207 68.3358 4.89484 68.3358C4.97562 68.3358 4.99357 68.6358 4.93473 69.0028C4.8759 69.3698 4.89484 69.6698 4.97561 69.6698C5.05539 69.6698 5.17206 70.1168 5.23389 70.6648C5.29572 71.2118 5.42037 71.7058 5.51111 71.7618C5.60285 71.8178 5.63177 72.0078 5.57593 72.1838C5.5151 72.3758 5.55299 72.5028 5.67166 72.5028C5.78634 72.5028 5.83221 72.6418 5.78135 72.8358C5.73349 73.0198 5.75443 73.1698 5.82722 73.1698C5.90002 73.1698 6.01071 73.3738 6.07353 73.6228C6.19619 74.1138 7.45864 76.7238 8.03103 77.6698C8.45185 78.3658 11.8164 81.8258 12.0797 81.8318C12.1804 81.8338 12.4606 82.0197 12.7029 82.2447C12.9442 82.4697 13.1427 82.6177 13.1427 82.5747C13.1427 82.4607 15.2099 83.5478 15.2717 83.6948C15.3006 83.7618 15.4322 83.7757 15.5629 83.7257C15.6945 83.6747 15.8012 83.7207 15.8012 83.8277C15.8012 83.9347 15.869 83.9808 15.9508 83.9298C16.0326 83.8798 16.3058 83.9457 16.5591 84.0767C16.8114 84.2077 17.305 84.3647 17.656 84.4237C18.007 84.4837 18.2942 84.5898 18.2942 84.6608C18.2942 84.7318 18.4817 84.7538 18.71 84.7098C18.9504 84.6638 19.1259 84.7078 19.1259 84.8148C19.1259 84.9158 19.2934 84.9988 19.4998 84.9988C19.7052 84.9978 20.3225 85.0678 20.871 85.1528C21.4194 85.2378 22.298 85.3148 22.8235 85.3218C23.349 85.3298 23.7788 85.4108 23.7788 85.5028C23.7788 85.6028 24.4439 85.6698 25.4411 85.6698C26.4383 85.6698 27.1035 85.6028 27.1035 85.5028C27.1035 85.4108 27.4954 85.3318 27.976 85.3258C28.7159 85.3178 29.5566 85.1998 30.7592 84.9368C30.8968 84.9068 31.1431 84.8248 31.3067 84.7558C31.4712 84.6858 31.6507 84.6748 31.7075 84.7308C31.7634 84.7868 31.909 84.7508 32.0306 84.6498C32.1513 84.5478 32.3647 84.5088 32.5023 84.5618C32.6409 84.6158 32.7536 84.5938 32.7536 84.5138C32.7536 84.4348 33.1276 84.2798 33.5853 84.1698C34.042 84.0598 34.4159 83.8938 34.4159 83.8018C34.4159 83.7098 34.5236 83.6747 34.6543 83.7257C34.7859 83.7757 34.9165 83.7568 34.9454 83.6838C34.9744 83.6098 35.3344 83.3877 35.7452 83.1897C36.5878 82.7857 37.7226 82.1177 38.0208 81.8507C38.1305 81.7537 38.5413 81.4667 38.9352 81.2127C39.3291 80.9587 40.093 80.2828 40.6325 79.7098C41.172 79.1378 41.7174 78.6698 41.8441 78.6698C41.9717 78.6698 42.0545 78.5758 42.0286 78.4608C41.9827 78.2608 42.8433 76.9788 43.0995 76.8638C43.1684 76.8338 43.2242 76.7018 43.2242 76.5718C43.2242 76.4428 43.294 76.3358 43.3798 76.3358C43.4645 76.3358 43.5852 76.1778 43.646 75.9838C43.7657 75.6048 45.5756 77.1538 45.5008 77.5718C45.4829 77.6708 45.5995 77.7427 45.7601 77.7297C45.9196 77.7167 46.2487 77.9417 46.49 78.2297C46.7313 78.5177 46.9597 78.7287 46.9976 78.6997C47.0634 78.6477 47.8452 79.2068 48.296 79.6278C48.4186 79.7428 48.5652 79.8358 48.621 79.8358C48.6769 79.8358 48.8135 79.9168 48.9242 80.0158C49.2104 80.2708 50.2455 80.8717 51.7842 81.6747C52.5151 82.0567 53.1374 82.4328 53.1653 82.5098C53.1942 82.5878 53.3258 82.6098 53.4565 82.5588C53.5881 82.5088 53.6948 82.5547 53.6948 82.6617C53.6948 82.7687 53.7646 82.8128 53.8504 82.7598C53.9361 82.7068 54.2911 82.8107 54.6401 82.9907C54.9882 83.1707 55.6294 83.4058 56.0631 83.5138C56.4979 83.6208 56.8529 83.7588 56.8529 83.8198C56.8529 83.8818 56.9836 83.9418 57.1441 83.9558C57.6886 84.0008 59.0138 84.3917 59.0138 84.5077C59.0138 84.5707 59.2003 84.5878 59.4287 84.5438C59.675 84.4968 59.8445 84.5408 59.8445 84.6528C59.8445 84.7698 59.9971 84.8038 60.2414 84.7428C60.4608 84.6878 60.6891 84.7238 60.751 84.8228C60.8118 84.9228 61.0362 84.9598 61.2496 84.9068C61.462 84.8528 61.6824 84.8828 61.7382 84.9738C61.794 85.0648 62.5499 85.1918 63.4185 85.2568C64.286 85.3228 64.997 85.4228 64.997 85.4808C64.997 85.6118 72.5279 85.6218 72.6416 85.4908C72.7263 85.3938 75.5753 85.0088 76.2564 85.0028C76.4628 85.0008 76.6304 84.9158 76.6304 84.8148C76.6304 84.7078 76.8059 84.6638 77.0462 84.7098C77.2746 84.7538 77.462 84.7168 77.462 84.6268C77.462 84.5368 77.6485 84.4998 77.8769 84.5438C78.1062 84.5878 78.2927 84.5668 78.2927 84.4978C78.2927 84.4298 78.5729 84.3207 78.916 84.2567C79.259 84.1917 79.614 84.0797 79.7057 84.0057C79.7965 83.9317 80.4696 83.6618 81.2015 83.4058C81.9325 83.1498 82.5677 82.8968 82.6136 82.8448C82.6594 82.7918 83.1082 82.5628 83.6108 82.3348C84.1134 82.1058 84.5501 81.8628 84.581 81.7938C84.612 81.7238 84.7047 81.7098 84.7885 81.7618C84.8722 81.8138 84.941 81.7857 84.941 81.6997C84.941 81.6137 85.1654 81.4498 85.4396 81.3358C85.7139 81.2218 85.9382 81.0628 85.9382 80.9828C85.9382 80.9018 86.0459 80.8358 86.1786 80.8358C86.3112 80.8358 86.6213 80.6488 86.8676 80.4198C87.1139 80.1908 87.3802 80.0028 87.458 80.0028C87.6016 80.0028 87.6684 79.9498 88.8281 78.9138C89.1841 78.5958 89.576 78.3358 89.7007 78.3358C89.8253 78.3358 89.927 78.2637 89.927 78.1757C89.927 77.9587 92.5487 75.3358 92.7661 75.3358C92.8608 75.3358 92.8977 75.2697 92.8478 75.1897C92.7481 75.0287 93.5359 74.1698 93.7822 74.1698C93.866 74.1698 93.8929 74.1007 93.842 74.0177C93.7553 73.8777 94.0485 73.4548 94.7884 72.6518C94.9479 72.4778 95.0786 72.2927 95.0786 72.2397C95.0786 72.0457 96.8237 69.5028 96.9563 69.5028C97.0311 69.5028 97.047 69.4278 96.9902 69.3358C96.9334 69.2448 96.9663 69.1698 97.063 69.1698C97.1607 69.1698 97.2395 69.0707 97.2395 68.9507C97.2395 68.8307 97.3761 68.5858 97.5426 68.4058C97.7102 68.2258 97.8159 67.9868 97.778 67.8738C97.7411 67.7618 97.8039 67.6698 97.9186 67.6698C98.0323 67.6698 98.0781 67.6217 98.0203 67.5627C97.9615 67.5047 98.0482 67.2607 98.2128 67.0217C98.3763 66.7817 98.6076 66.3428 98.7263 66.0448C98.845 65.7468 99.0075 65.5028 99.0883 65.5028C99.1681 65.5028 99.2219 65.4468 99.208 65.3778C99.1741 65.2128 99.7355 63.9428 99.889 63.8358C99.9549 63.7898 100.148 63.3588 100.319 62.8778C100.489 62.3968 100.687 62.0028 100.758 62.0028C100.827 62.0028 100.842 61.8898 100.79 61.7528C100.738 61.6148 100.777 61.5028 100.878 61.5028C100.979 61.5028 101.05 61.4468 101.035 61.3778C101.021 61.3088 101.088 61.0607 101.185 60.8257C101.282 60.5917 101.456 60.0857 101.57 59.7007C101.686 59.3167 101.841 59.0028 101.914 59.0028C101.988 59.0028 102.009 58.8977 101.959 58.7697C101.91 58.6417 101.941 58.4917 102.029 58.4377C102.116 58.3837 102.319 57.8517 102.481 57.2547C102.641 56.6577 102.842 56.1698 102.925 56.1698C103.008 56.1698 103.028 56.0907 102.968 55.9957C102.91 55.8997 102.936 55.7307 103.028 55.6207C103.12 55.5097 103.206 55.3448 103.221 55.2528C103.317 54.6278 103.648 53.6698 103.767 53.6698C103.846 53.6698 103.863 53.5198 103.804 53.3358C103.741 53.1378 103.774 53.0028 103.886 53.0028C103.99 53.0028 104.027 52.9278 103.971 52.8358C103.914 52.7448 103.927 52.5758 103.998 52.4608C104.069 52.3468 104.146 52.1778 104.17 52.0858C104.193 51.9948 104.302 51.5628 104.41 51.1278C104.519 50.6928 104.675 50.3358 104.756 50.3358C104.838 50.3358 104.856 50.2577 104.797 50.1617C104.738 50.0667 104.777 49.8818 104.885 49.7528C104.992 49.6238 105.035 49.4437 104.98 49.3547C104.924 49.2657 104.961 49.1418 105.06 49.0808C105.158 49.0198 105.2 48.8667 105.152 48.7407C105.104 48.6157 105.128 48.4748 105.205 48.4268C105.283 48.3788 105.395 48.0767 105.455 47.7547C105.515 47.4327 105.644 47.1698 105.741 47.1698C105.838 47.1698 105.872 47.0498 105.816 46.9048C105.761 46.7588 105.767 46.5557 105.829 46.4527C105.892 46.3507 105.964 46.0778 105.989 45.8458C106.014 45.6138 106.103 45.4008 106.187 45.3728C106.272 45.3448 106.004 44.8187 105.592 44.2037C102.045 38.9157 101.885 30.9417 105.229 26.0677C105.817 25.2107 105.769 25.0988 105.146 25.8778ZM120.342 43.2788C120.342 43.4618 120.756 43.8638 121.172 44.0838C121.309 44.1568 121.272 44.0748 121.09 43.9008C120.906 43.7278 120.664 43.4778 120.549 43.3458C120.434 43.2138 120.342 43.1838 120.342 43.2788ZM122.074 44.7567C122.25 44.8897 122.435 44.9587 122.485 44.9087C122.589 44.8037 122.167 44.5068 121.92 44.5108C121.828 44.5118 121.898 44.6227 122.074 44.7567ZM123.167 45.3888C123.167 45.4728 125.802 47.4238 126.526 47.8758C126.781 48.0348 126.989 48.1048 126.989 48.0308C126.989 47.9578 126.69 47.7287 126.325 47.5227C125.959 47.3167 125.66 47.0777 125.66 46.9917C125.66 46.9067 125.558 46.8358 125.434 46.8358C125.311 46.8358 125.008 46.6488 124.761 46.4198C124.515 46.1908 124.273 46.0028 124.223 46.0028C124.173 46.0028 123.915 45.8477 123.649 45.6577C123.384 45.4687 123.167 45.3468 123.167 45.3888ZM107.294 46.7768C108.141 47.5298 108.453 47.7488 108.126 47.3628C107.945 47.1478 107.646 46.8947 107.463 46.7997C107.279 46.7057 107.204 46.6948 107.294 46.7768ZM108.783 48.2177C109.034 48.6027 109.509 48.9218 109.638 48.7918C109.666 48.7638 109.423 48.5278 109.097 48.2668C108.508 47.7958 108.507 47.7957 108.783 48.2177ZM127.157 48.2948C127.158 48.3628 127.424 48.5907 127.746 48.7997C128.086 49.0217 128.283 49.2587 128.216 49.3677C128.141 49.4907 128.181 49.5087 128.335 49.4207C128.524 49.3127 128.529 49.3298 128.36 49.5118C128.124 49.7678 128.079 50.0678 128.298 49.9318C128.473 49.8238 128.418 50.7067 128.232 51.0087C128.151 51.1407 128.168 51.1798 128.278 51.1108C128.47 50.9928 128.461 51.4158 128.268 51.6088C128.109 51.7688 128.122 52.0418 128.284 51.9408C128.453 51.8368 128.432 53.3518 128.261 53.6278C128.191 53.7428 128.192 53.9298 128.263 54.0448C128.445 54.3328 128.449 55.3757 128.27 55.6207C128.191 55.7307 128.184 55.9187 128.257 56.0367C128.431 56.3187 128.455 57.8367 128.284 57.7307C128.122 57.6307 128.109 57.9037 128.268 58.0627C128.461 58.2557 128.47 58.6797 128.278 58.5607C128.168 58.4927 128.151 58.5308 128.232 58.6638C128.418 58.9658 128.473 59.8477 128.298 59.7397C128.126 59.6327 128.102 59.8957 128.268 60.0627C128.461 60.2557 128.47 60.6797 128.278 60.5607C128.168 60.4927 128.151 60.5308 128.232 60.6638C128.429 60.9828 128.527 62.5028 128.351 62.5028C128.267 62.5028 128.237 62.2968 128.285 62.0448C128.363 61.6328 128.344 61.6097 128.097 61.8147C127.816 62.0477 127.573 61.9558 127.073 61.4268C126.781 61.1188 125.254 59.8978 124.995 59.7658C124.858 59.6958 125.082 59.9268 125.493 60.2788C126.484 61.1288 127.155 61.8657 127.155 62.1057C127.155 62.2127 127.256 62.3388 127.379 62.3868C127.502 62.4338 127.699 62.8187 127.818 63.2417C127.935 63.6647 128.093 64.0498 128.169 64.0958C128.243 64.1418 128.265 64.2827 128.217 64.4077C128.17 64.5327 128.213 64.6868 128.312 64.7488C128.424 64.8178 128.454 65.0848 128.389 65.4328C128.319 65.8038 128.346 66.0028 128.467 66.0028C128.583 66.0028 128.651 66.4028 128.651 67.0858C128.651 67.7288 128.58 68.1698 128.478 68.1698C128.369 68.1698 128.345 68.3888 128.413 68.7528C128.487 69.1498 128.46 69.3358 128.327 69.3358C128.22 69.3358 128.178 69.4088 128.232 69.4978C128.342 69.6758 127.705 71.1927 127.453 71.3547C127.365 71.4107 127.303 71.5237 127.316 71.6047C127.374 71.9907 125.495 74.0028 125.075 74.0028C124.94 74.0028 124.829 74.0717 124.829 74.1567C124.829 74.3627 122.833 75.3547 122.647 75.2397C122.567 75.1907 122.502 75.2378 122.502 75.3458C122.502 75.4598 122.363 75.5048 122.169 75.4548C121.987 75.4068 121.837 75.4258 121.837 75.4968C121.837 75.6788 120.24 75.8287 118.181 75.8417C116.235 75.8537 114.69 75.6958 114.69 75.4838C114.69 75.4068 114.466 75.3898 114.192 75.4448C113.861 75.5108 113.693 75.4778 113.693 75.3458C113.693 75.2228 113.567 75.1878 113.361 75.2528C113.158 75.3178 113.028 75.2828 113.028 75.1628C113.028 75.0508 112.913 75.0118 112.758 75.0708C112.609 75.1288 112.404 75.1098 112.301 75.0308C112.198 74.9508 111.572 74.7477 110.909 74.5787C110.247 74.4097 109.704 74.2137 109.704 74.1427C109.704 74.0717 109.6 74.0537 109.472 74.1027C109.344 74.1517 109.189 74.1108 109.128 74.0118C109.067 73.9118 108.953 73.8708 108.874 73.9198C108.795 73.9678 108.683 73.9317 108.626 73.8387C108.569 73.7457 108.376 73.6698 108.199 73.6698C108.021 73.6698 107.877 73.5897 107.877 73.4917C107.877 73.3897 107.735 73.3588 107.544 73.4198C107.357 73.4788 107.211 73.4497 107.211 73.3527C107.211 73.2577 107.103 73.2217 106.97 73.2727C106.838 73.3237 106.635 73.3078 106.52 73.2368C106.249 73.0688 103.832 73.0387 103.714 73.2027C103.664 73.2717 103.44 73.3488 103.216 73.3738C102.791 73.4208 101.228 74.8157 101.228 75.1467C101.228 75.2507 101.154 75.3358 101.062 75.3358C100.971 75.3358 100.896 75.4908 100.896 75.6798C100.896 75.8678 100.832 75.9827 100.754 75.9347C100.676 75.8857 100.647 76.0317 100.69 76.2577C100.736 76.4967 100.691 76.6698 100.583 76.6698C100.468 76.6698 100.398 77.0228 100.398 77.5858C100.398 78.1458 100.469 78.5028 100.581 78.5028C100.695 78.5028 100.726 78.6628 100.662 78.9198C100.604 79.1488 100.615 79.3368 100.685 79.3368C100.803 79.3378 101.418 80.2957 101.355 80.3807C101.314 80.4357 102.224 81.3358 102.32 81.3358C102.364 81.3358 102.78 81.5988 103.246 81.9198C103.71 82.2398 104.195 82.5028 104.322 82.5028C104.448 82.5028 104.552 82.5818 104.552 82.6798C104.552 82.7768 104.614 82.8177 104.689 82.7707C104.764 82.7247 105.033 82.7937 105.285 82.9257C105.538 83.0567 106.038 83.2528 106.395 83.3598C106.753 83.4678 107.045 83.6228 107.045 83.7058C107.045 83.7878 107.12 83.8098 107.211 83.7528C107.303 83.6958 107.471 83.7088 107.585 83.7798C107.7 83.8518 107.868 83.9287 107.959 83.9527C108.051 83.9757 108.481 84.0848 108.915 84.1938C109.349 84.3028 109.704 84.4558 109.704 84.5338C109.704 84.6118 109.883 84.6308 110.101 84.5758C110.321 84.5208 110.547 84.5538 110.606 84.6488C110.665 84.7438 110.818 84.7808 110.948 84.7308C111.079 84.6808 111.281 84.7028 111.4 84.7788C111.518 84.8548 111.766 84.9358 111.948 84.9598C113.715 85.1838 115.121 85.4148 115.189 85.4918C115.315 85.6348 121.837 85.6048 121.837 85.4608C121.837 85.3928 122.118 85.3328 122.461 85.3288C122.803 85.3248 123.42 85.2458 123.832 85.1528C124.243 85.0598 124.747 84.9878 124.954 84.9918C125.159 84.9958 125.328 84.9168 125.328 84.8168C125.328 84.7158 125.449 84.6808 125.598 84.7378C125.746 84.7948 125.968 84.7588 126.088 84.6578C126.21 84.5568 126.388 84.5228 126.483 84.5818C126.579 84.6408 126.657 84.6098 126.657 84.5128C126.657 84.4158 126.788 84.3358 126.948 84.3348C127.108 84.3348 127.458 84.2198 127.726 84.0798C127.993 83.9398 128.33 83.8067 128.474 83.7847C128.617 83.7627 129.277 83.4677 129.94 83.1307C130.602 82.7927 131.144 82.5507 131.144 82.5927C131.144 82.6347 131.286 82.5378 131.458 82.3778C131.631 82.2178 132.155 81.8238 132.624 81.5028C134.994 79.8798 138.611 75.0808 138.622 73.5448C138.622 73.4298 138.696 73.3358 138.784 73.3358C138.873 73.3358 138.905 73.2307 138.856 73.1027C138.807 72.9747 138.844 72.8228 138.937 72.7648C139.031 72.7058 139.068 72.5558 139.02 72.4308C138.972 72.3058 139.007 72.1567 139.099 72.1007C139.19 72.0437 139.316 71.5858 139.379 71.0838C139.441 70.5808 139.561 70.1698 139.644 70.1698C139.731 70.1698 139.749 69.7088 139.685 69.0858C139.607 68.3228 139.63 68.0028 139.764 68.0028C139.88 68.0028 139.953 67.6818 139.953 67.1698C139.953 66.6548 139.88 66.3358 139.762 66.3358C139.628 66.3358 139.602 65.9918 139.669 65.1698C139.723 64.5278 139.707 64.0028 139.634 64.0028C139.562 64.0028 139.453 63.5378 139.394 62.9688C139.334 62.3998 139.218 61.8657 139.134 61.7817C139.05 61.6977 139.021 61.5258 139.07 61.3988C139.118 61.2728 139.066 61.1698 138.954 61.1698C138.833 61.1698 138.786 61.0358 138.838 60.8358C138.886 60.6528 138.857 60.5028 138.774 60.5028C138.691 60.5028 138.623 60.4028 138.623 60.2808C138.623 59.8508 136.574 56.1938 136.132 55.8358C136.075 55.7898 135.831 55.4868 135.588 55.1628C134.938 54.2928 133.316 52.7017 132.116 51.7557C131.535 51.2987 131.024 50.8818 130.978 50.8308C130.932 50.7788 130.633 50.5568 130.314 50.3358C129.994 50.1158 129.694 49.8908 129.648 49.8358C129.603 49.7798 129.267 49.5558 128.901 49.3368C128.535 49.1178 128.082 48.7848 127.894 48.5958C127.537 48.2368 127.154 48.0808 127.157 48.2948ZM35.468 53.5858C35.468 54.2278 35.4989 54.4698 35.5348 54.1238C35.5707 53.7778 35.5697 53.2528 35.5328 52.9578C35.4959 52.6618 35.467 52.9448 35.468 53.5858ZM119.066 55.7297C119.234 55.8657 119.481 56.1128 119.616 56.2808C119.844 56.5648 119.848 56.5597 119.681 56.2147C119.584 56.0107 119.336 55.7628 119.133 55.6638C118.788 55.4968 118.784 55.5017 119.066 55.7297ZM121.504 57.4738C121.504 57.5598 121.636 57.6737 121.796 57.7267C121.955 57.7807 122.273 57.9567 122.502 58.1197C122.783 58.3197 122.855 58.3358 122.722 58.1678C122.451 57.8218 121.504 57.2828 121.504 57.4738ZM36.7424 63.4667C36.7424 63.5787 36.8172 63.6698 36.9089 63.6698C37.0007 63.6698 37.0755 63.8147 37.0755 63.9927C37.0755 64.1707 37.1582 64.3678 37.259 64.4308C37.3846 64.5088 37.4055 64.4198 37.3248 64.1488C37.1822 63.6758 36.7424 63.1597 36.7424 63.4667ZM37.3597 65.0057C37.4883 65.4987 37.7057 65.5628 37.613 65.0808C37.5701 64.8548 37.4763 64.6698 37.4035 64.6698C37.3317 64.6698 37.3118 64.8207 37.3597 65.0057Z" fill="#D52E94"/>
<path fill-rule="evenodd" clip-rule="evenodd" d="M10.3148 0.841135C7.94741 0.981135 5.16523 2.87713 5.16523 4.35113C5.16523 4.43213 5.10041 4.49813 5.02163 4.49813C4.94285 4.49813 4.91394 4.68613 4.95781 4.91513C5.00169 5.14413 4.97277 5.33113 4.89299 5.33113C4.64768 5.33113 4.79527 51.8711 5.04158 52.0281C5.19514 52.1261 5.18418 52.1611 4.9987 52.1651C4.78031 52.1691 4.77931 52.1891 4.99471 52.3251C5.15626 52.4271 5.2829 52.4121 5.36866 52.2811C5.46439 52.1321 5.53918 52.1451 5.66084 52.3311C5.80643 52.5541 5.82538 52.5541 5.82936 52.3311C5.83435 52.1091 5.8523 52.1091 5.9959 52.3311C6.11456 52.5161 6.15744 52.5241 6.15944 52.3611C6.16143 52.1981 6.23124 52.2101 6.42868 52.4091C6.62513 52.6061 6.75277 52.6291 6.91232 52.4961C7.0629 52.3711 7.16262 52.3691 7.23741 52.4901C7.29625 52.5861 7.4199 52.6651 7.51164 52.6651C7.60239 52.6651 7.63529 52.5961 7.58344 52.5131C7.44882 52.2941 7.90952 52.3901 8.21566 52.6451C8.36624 52.7701 8.56369 52.8031 8.68933 52.7231C9.02539 52.5091 9.21087 52.5371 9.56886 52.8521C9.93683 53.1761 10.1064 53.2011 10.4992 52.9891C10.6618 52.9021 10.8383 52.9211 10.954 53.0371C11.1634 53.2461 11.8425 53.3471 11.7208 53.1511C11.5762 52.9161 12.1725 53.1061 12.3251 53.3431C12.4568 53.5481 12.5006 53.5471 12.6412 53.3311C12.7868 53.1091 12.8058 53.1091 12.8098 53.3311C12.8147 53.5541 12.8327 53.5541 12.9763 53.3311C13.1199 53.1091 13.1378 53.1091 13.1428 53.3311C13.1468 53.5541 13.1658 53.5541 13.3114 53.3311C13.445 53.1271 13.5008 53.1221 13.6185 53.3041C13.6973 53.4261 13.809 53.5201 13.8678 53.5121C13.9256 53.5041 13.9924 53.5041 14.0154 53.5121C14.2746 53.5991 14.7712 53.5791 14.7124 53.4841C14.5678 53.2491 15.1641 53.4391 15.3167 53.6761C15.4464 53.8791 15.4912 53.8801 15.6189 53.6821C15.7385 53.4951 15.7834 53.5111 15.8482 53.7651C15.923 54.0551 15.931 54.0561 15.9489 53.7801C15.9589 53.6141 16.0307 53.5171 16.1075 53.5651C16.1843 53.6131 16.3049 50.6361 16.3757 46.9501C16.4465 43.2641 16.5243 39.7601 16.5483 39.1651C16.5722 38.5691 16.6011 36.0401 16.6121 33.5441L16.633 29.0081L24.3194 28.9441C30.9568 28.8891 32.671 28.8321 32.8784 28.6581C32.9013 28.6391 32.9761 28.6101 33.0449 28.5951C33.9105 28.3981 35.9119 26.6461 35.9119 26.0851C35.9119 25.9461 35.9917 25.8311 36.0894 25.8311C36.1911 25.8311 36.222 25.6891 36.1612 25.4981C36.1003 25.3071 36.1313 25.1651 36.233 25.1651C36.4563 25.1651 36.4733 23.2231 36.2519 23.0861C36.1642 23.0321 36.1343 22.8771 36.1861 22.7431C36.238 22.6081 36.2051 22.4981 36.1143 22.4981C36.0226 22.4981 35.9049 22.3261 35.852 22.1151C35.7204 21.5881 33.7569 19.5751 33.749 19.9581C33.747 20.0261 33.6911 20.0001 33.6243 19.9001C33.3002 19.4191 31.8413 19.3311 24.2048 19.3311H16.4665L16.4306 12.9561C16.4106 9.45013 16.3937 6.28113 16.3917 5.91513C16.3897 5.54813 16.3468 5.21013 16.295 5.16513C16.2431 5.11913 16.1125 4.78113 16.0038 4.41513C15.5909 3.01913 13.9077 1.40013 12.5146 1.05813C12.2653 0.997134 12.025 0.902135 11.9791 0.847135C11.9332 0.793135 11.1843 0.790135 10.3148 0.841135ZM65.5786 18.6701C65.3043 18.7591 64.7618 18.7861 64.3739 18.7301C63.8704 18.6561 63.6669 18.6861 63.6669 18.8311C63.6669 18.9791 63.4605 19.0051 62.919 18.9231C62.3885 18.8441 62.1711 18.8691 62.1711 19.0101C62.1711 19.1441 61.9817 19.1771 61.5898 19.1141C61.2697 19.0621 61.0084 19.0801 61.0084 19.1541C61.0084 19.2871 59.739 19.5791 59.4448 19.5141C59.361 19.4951 59.2423 19.5631 59.1805 19.6641C59.1187 19.7641 58.7567 19.8591 58.3758 19.8751C57.9959 19.8901 57.6837 19.9701 57.6837 20.0531C57.6837 20.1361 57.5341 20.1641 57.3517 20.1161C57.1682 20.0681 57.0605 20.0971 57.1123 20.1801C57.1632 20.2631 57.1004 20.3311 56.9717 20.3311C56.8431 20.3311 56.4961 20.4521 56.2019 20.6001C55.9067 20.7471 55.4839 20.8791 55.2615 20.8911C55.0402 20.9041 54.8587 20.9711 54.8587 21.0401C54.8587 21.1081 54.7928 21.1651 54.7131 21.1651C54.6323 21.1651 54.2773 21.2911 53.9233 21.4461C53.5693 21.6001 53.2233 21.7131 53.1554 21.6961C53.0866 21.6791 53.0308 21.7301 53.0308 21.8111C53.0308 21.8911 52.6748 22.1191 52.241 22.3181C51.8072 22.5171 51.1152 22.8981 50.7033 23.1661C50.2925 23.4341 49.6832 23.8031 49.3501 23.9871C49.0171 24.1701 48.6431 24.4171 48.5185 24.5341C48.3948 24.6521 47.8773 25.0651 47.3687 25.4531C45.5418 26.8451 42.6878 29.9711 41.2399 32.1651C40.483 33.3111 39.797 34.2731 39.7152 34.3041C39.6334 34.3351 39.6045 34.4221 39.6514 34.4981C39.6982 34.5751 39.4091 35.2991 39.0092 36.1091C38.6083 36.9191 38.1775 37.8251 38.0529 38.1231C37.9272 38.4211 37.7647 38.6651 37.6899 38.6651C37.6151 38.6651 37.6011 38.7411 37.659 38.8351C37.7966 39.0581 37.0975 41.1651 36.8861 41.1651C36.7964 41.1651 36.7625 41.2291 36.8104 41.3071C36.928 41.4971 36.5501 43.4981 36.3965 43.4981C36.3297 43.4981 36.3147 43.6481 36.3626 43.8321C36.4105 44.0161 36.3636 44.2711 36.2579 44.3981C36.1522 44.5251 36.0774 44.6941 36.0924 44.7721C36.1622 45.1651 36.0605 45.6731 35.9278 45.5911C35.8421 45.5381 35.8161 45.7861 35.866 46.1651C35.9179 46.5521 35.8869 46.8311 35.7922 46.8311C35.6955 46.8311 35.6616 47.1741 35.7084 47.6641C35.7523 48.1221 35.7174 48.5901 35.6327 48.7051C35.4492 48.9521 35.4701 55.9441 35.6556 56.3741C35.7254 56.5351 35.7334 56.9291 35.6735 57.2491C35.5988 57.6461 35.6267 57.8311 35.7603 57.8311C35.8919 57.8311 35.9268 58.0461 35.868 58.4901C35.8191 58.8521 35.8461 59.1711 35.9278 59.1981C36.0585 59.2421 36.1283 59.5201 36.3167 60.7481C36.3447 60.9311 36.4214 61.2091 36.4873 61.3651C36.5521 61.5211 36.5581 61.7271 36.4982 61.8231C36.4394 61.9191 36.4783 61.9981 36.586 61.9981C36.7046 61.9981 36.7505 62.1611 36.7027 62.4151C36.6588 62.6441 36.6867 62.8311 36.7655 62.8311C36.8443 62.8311 36.9091 62.9321 36.9091 63.0561C36.9091 63.1791 37.0267 63.5161 37.1693 63.8041C37.3129 64.0921 37.3827 64.4031 37.3259 64.4961C37.2691 64.5891 37.301 64.6651 37.3977 64.6651C37.4944 64.6651 37.5742 64.7991 37.5742 64.9631C37.5742 65.1271 37.7068 65.5231 37.8694 65.8431C38.0329 66.1631 38.3061 66.7981 38.4767 67.2531C38.9404 68.4871 40.5359 71.2691 41.1781 71.9641C41.3895 72.1931 41.564 72.4631 41.565 72.5641C41.567 72.6651 41.6398 72.6361 41.7285 72.4981C41.8721 72.2761 41.8911 72.2761 41.8981 72.4981C41.904 72.6951 41.9409 72.6861 42.0746 72.4561C42.1673 72.2961 42.3338 72.1661 42.4435 72.1671C42.5652 72.1691 42.5462 72.2331 42.3937 72.3311C42.2441 72.4281 42.2232 72.4941 42.3418 72.4951C42.4515 72.4971 42.5871 72.4221 42.645 72.3291C42.7018 72.2351 42.8185 72.2021 42.9042 72.2551C42.989 72.3081 43.0588 72.2621 43.0588 72.1541C43.0588 72.0061 43.1146 72.0041 43.2872 72.1481C43.4667 72.2971 43.5345 72.2681 43.6013 72.0121C43.6641 71.7701 43.7818 71.7111 44.054 71.7831C44.2784 71.8411 44.4798 71.7881 44.5686 71.6471C44.6912 71.4531 44.7161 71.4561 44.7231 71.6651C44.7291 71.8741 44.756 71.8711 44.8877 71.6451C44.9804 71.4851 45.2147 71.3951 45.464 71.4221C45.6974 71.4481 45.8849 71.3831 45.8869 71.2751C45.8879 71.1651 45.9587 71.1901 46.0504 71.3311C46.1392 71.4691 46.2119 71.4961 46.2139 71.3911C46.2149 71.2861 46.3326 71.1561 46.4742 71.1011C46.6258 71.0431 46.6896 71.0721 46.6278 71.1711C46.5709 71.2641 46.7913 71.1891 47.1184 71.0051C47.4445 70.8211 47.7127 70.7251 47.7147 70.7931C47.7157 70.8601 47.7895 70.8021 47.8783 70.6651C48.0049 70.4681 48.0398 70.4641 48.0418 70.6431C48.0438 70.8281 48.0927 70.8321 48.2941 70.6651C48.4307 70.5511 48.5434 70.5131 48.5434 70.5811C48.5434 70.6501 48.67 70.6031 48.8246 70.4771C49.056 70.2881 49.0819 70.2881 48.9702 70.4741C48.8874 70.6121 49.0181 70.5791 49.3053 70.3901C49.6553 70.1611 49.738 70.1461 49.6264 70.3311C49.5017 70.5391 49.5197 70.5461 49.7311 70.3741C49.8717 70.2611 50.0322 70.2141 50.0881 70.2701C50.6754 70.8591 50.6106 70.0381 49.9275 68.2181C48.0079 63.1121 47.2271 58.3161 47.3258 52.2481C47.3817 48.8211 47.628 46.1241 47.8932 46.0261C47.976 45.9951 48.0009 45.7971 47.9481 45.5861C47.8942 45.3741 47.9251 45.1551 48.0159 45.0991C48.1056 45.0431 48.1405 44.8481 48.0927 44.6651C48.0448 44.4811 48.0867 44.3311 48.1864 44.3311C48.2851 44.3311 48.326 44.2261 48.2771 44.0981C48.2283 43.9701 48.2682 43.8161 48.3659 43.7551C48.4636 43.6951 48.5434 43.5421 48.5434 43.4161C48.5434 43.2901 48.6302 42.9751 48.7359 42.7171C48.8426 42.4591 48.9144 42.1831 48.8954 42.1041C48.8775 42.0241 48.9792 41.7801 49.1218 41.5621C49.2654 41.3431 49.3422 41.1651 49.2933 41.1651C49.1427 41.1651 50.7811 38.1261 51.544 36.9911C52.3916 35.7291 55.4031 32.6551 56.1919 32.2461C56.4931 32.0901 56.889 31.8221 57.0734 31.6501C57.2569 31.4781 57.7316 31.2131 58.1275 31.0621C58.5234 30.9101 58.8475 30.7171 58.8475 30.6321C58.8475 30.5481 58.9173 30.5211 59.002 30.5741C59.0868 30.6271 59.2045 30.5931 59.2633 30.4981C59.3211 30.4031 59.4388 30.3691 59.5236 30.4221C59.6093 30.4751 59.6781 30.4451 59.6781 30.3571C59.6781 30.2681 60.0521 30.0991 60.5098 29.9821C60.9665 29.8641 61.3405 29.6991 61.3405 29.6151C61.3405 29.5311 61.4521 29.5061 61.5898 29.5581C61.7264 29.6111 61.8391 29.5731 61.8391 29.4731C61.8391 29.3741 61.9886 29.3321 62.1711 29.3801C62.3546 29.4281 62.5042 29.3901 62.5042 29.2961C62.5042 29.2031 62.6907 29.1621 62.919 29.2051C63.1484 29.2491 63.3349 29.2301 63.3349 29.1631C63.3349 29.0961 63.6899 28.9941 64.1246 28.9371C64.5584 28.8791 65.2505 28.7891 65.6613 28.7351C67.9319 28.4401 74.1924 28.8801 74.4845 29.3551C74.5474 29.4571 74.686 29.4871 74.7917 29.4221C74.8974 29.3561 75.0888 29.3911 75.2185 29.4981C75.3471 29.6051 75.5256 29.6481 75.6154 29.5931C75.7041 29.5381 75.8188 29.5601 75.8697 29.6431C75.9205 29.7261 76.2247 29.8431 76.5458 29.9031C76.8669 29.9641 77.1291 30.0781 77.1291 30.1571C77.1291 30.2361 77.2787 30.2611 77.4622 30.2131C77.6546 30.1621 77.7942 30.2081 77.7942 30.3221C77.7942 30.4291 77.8621 30.4751 77.9458 30.4241C78.0286 30.3721 78.4694 30.5181 78.9251 30.7471C79.3808 30.9771 79.8365 31.1651 79.9372 31.1651C80.038 31.1651 80.1207 31.2481 80.1207 31.3491C80.1207 31.4511 80.2334 31.4901 80.37 31.4381C80.5076 31.3851 80.6193 31.4121 80.6193 31.4981C80.6193 31.5841 80.732 31.6111 80.8686 31.5581C81.0062 31.5061 81.1179 31.5411 81.1179 31.6361C81.1179 31.7321 81.2495 31.8111 81.4091 31.8121C81.5686 31.8131 82.1111 31.9011 82.6137 32.0071C83.6319 32.2221 85.5186 32.1111 85.8746 31.8151C86.0002 31.7101 86.1039 31.6801 86.1039 31.7481C86.1039 31.8161 86.2166 31.7791 86.3532 31.6651C86.4908 31.5511 86.6025 31.5091 86.6025 31.5711C86.6025 31.6341 86.8837 31.4191 87.2258 31.0931C87.5688 30.7671 87.9059 30.5001 87.9737 30.4991C88.0425 30.4991 88.0983 30.3851 88.0983 30.2481C88.0983 30.1101 88.1671 29.9981 88.2519 29.9981C88.3356 29.9981 88.4543 29.7731 88.5141 29.4981C88.574 29.2231 88.6817 28.9981 88.7535 28.9981C88.8253 28.9981 88.8482 28.8111 88.8043 28.5811C88.7575 28.3381 88.8023 28.1651 88.91 28.1651C89.0247 28.1651 89.0955 27.8121 89.0955 27.2481C89.0955 26.6841 89.0247 26.3311 88.91 26.3311C88.8063 26.3311 88.7634 26.1841 88.8113 25.9981C88.8592 25.8151 88.8492 25.6641 88.7894 25.6631C88.7295 25.6621 88.5391 25.3431 88.3666 24.9551C87.9906 24.1101 86.7072 22.9711 85.4398 22.3571C84.9362 22.1141 84.4875 21.8691 84.4426 21.8141C84.3967 21.7591 83.948 21.5821 83.4454 21.4201C82.9418 21.2591 82.3624 21.0211 82.157 20.8921C81.9516 20.7631 81.783 20.7051 81.783 20.7651C81.783 20.8241 81.6893 20.7951 81.5756 20.7001C81.461 20.6051 81.087 20.4751 80.744 20.4111C80.4019 20.3471 80.1207 20.2351 80.1207 20.1621C80.1207 20.0891 79.9711 20.0681 79.7886 20.1161C79.6062 20.1641 79.4566 20.1221 79.4566 20.0231C79.4566 19.9231 79.3479 19.8841 79.2153 19.9351C79.0826 19.9861 78.8782 19.9681 78.7605 19.8961C78.5272 19.7511 78.5342 19.7531 76.9217 19.4641C76.3044 19.3531 75.7999 19.2081 75.7999 19.1411C75.7999 19.0741 75.5376 19.0621 75.2185 19.1141C74.8376 19.1761 74.6361 19.1421 74.6361 19.0181C74.6361 18.8891 74.4217 18.8621 73.973 18.9341C73.5681 18.9991 73.2201 18.9671 73.0825 18.8521C72.9588 18.7491 72.4901 18.6691 72.0434 18.6761C71.5957 18.6821 70.0699 18.6471 68.6529 18.5971C67.1591 18.5451 65.8677 18.5751 65.5786 18.6701ZM117.732 18.8851C117.681 18.9671 117.388 18.9941 117.079 18.9441C116.74 18.8881 116.518 18.9221 116.518 19.0281C116.518 19.1251 116.334 19.1681 116.104 19.1241C115.875 19.0801 115.688 19.1091 115.688 19.1881C115.688 19.2671 115.515 19.3311 115.306 19.3311C115.095 19.3311 114.852 19.3981 114.765 19.4801C114.679 19.5611 114.163 19.7551 113.621 19.9101C111.666 20.4691 107.993 22.7071 106.669 24.1461C101.977 29.2451 101.51 38.1121 105.611 44.2281C106.035 44.8591 106.381 45.4061 106.381 45.4431C106.381 45.4801 106.548 45.6971 106.755 45.9261C106.96 46.1551 107.254 46.4841 107.405 46.6561C107.558 46.8291 107.632 47.0201 107.572 47.0811C107.511 47.1421 107.545 47.1671 107.646 47.1371C107.748 47.1061 108.274 47.4941 108.813 47.9981C110.799 49.8521 112.377 51.0621 115.979 53.4911C116.825 54.0611 117.516 54.6091 117.516 54.7071C117.516 54.8061 117.562 54.8411 117.617 54.7851C117.673 54.7301 118.14 54.9801 118.655 55.3411C119.172 55.7021 120.528 56.6391 121.671 57.4221C124.99 59.6961 126.531 60.8381 127.073 61.4191C127.563 61.9471 127.815 62.0431 128.097 61.8101C128.344 61.6051 128.363 61.6281 128.285 62.0401C128.238 62.2921 128.26 62.4981 128.334 62.4981C128.493 62.4981 128.427 60.2181 128.263 60.0541C128.108 59.8981 128.125 59.6281 128.284 59.7261C128.447 59.8271 128.435 58.2251 128.271 58.0611C128.11 57.9001 128.121 57.6251 128.284 57.7261C128.455 57.8321 128.431 56.3141 128.258 56.0321C128.184 55.9141 128.191 55.7261 128.27 55.6161C128.449 55.3711 128.445 54.3281 128.263 54.0401C128.192 53.9251 128.191 53.7381 128.262 53.6231C128.432 53.3471 128.453 51.8321 128.284 51.9361C128.121 52.0381 128.11 51.7631 128.271 51.6011C128.435 51.4381 128.447 49.8351 128.284 49.9361C128.088 50.0581 128.126 49.7581 128.333 49.5511C128.463 49.4211 128.334 49.2351 127.876 48.8921C127.526 48.6301 127.14 48.3201 127.018 48.2051C126.896 48.0901 126.635 47.9091 126.437 47.8021C126.238 47.6961 125.346 47.0611 124.455 46.3911C123.564 45.7211 122.61 45.0571 122.336 44.9151C122.062 44.7721 121.838 44.5921 121.838 44.5141C121.838 44.4361 121.631 44.2861 121.379 44.1811C121.127 44.0771 120.639 43.7321 120.294 43.4161C119.95 43.0991 119.652 42.8571 119.631 42.8761C119.596 42.9091 118.85 42.3681 117.852 41.5871C116.194 40.2891 114.242 37.6811 114.128 36.6121C114.106 36.4041 114.031 36.1431 113.963 36.0311C113.895 35.9201 113.886 35.6791 113.943 35.4971C114.004 35.3071 113.973 35.1651 113.871 35.1651C113.642 35.1651 113.638 33.7191 113.866 33.5771C113.962 33.5181 113.995 33.3271 113.939 33.1521C113.884 32.9771 113.897 32.7401 113.969 32.6241C114.04 32.5091 114.12 32.2821 114.145 32.1211C114.38 30.6111 117.204 28.3591 118.957 28.2831C119.398 28.2641 119.813 28.1731 119.878 28.0811C120.026 27.8741 123.72 27.9141 123.79 28.1231C123.817 28.2051 124.062 28.2401 124.335 28.2001C124.623 28.1571 124.829 28.2021 124.829 28.3071C124.829 28.4061 124.941 28.4441 125.078 28.3921C125.215 28.3391 125.458 28.3531 125.618 28.4221C125.778 28.4921 126.04 28.5331 126.2 28.5131C126.36 28.4931 126.49 28.5611 126.49 28.6641C126.49 28.7671 126.555 28.8111 126.634 28.7621C126.809 28.6541 127.651 29.0291 127.653 29.2161C127.653 29.2901 127.727 29.3061 127.817 29.2501C128.029 29.1191 129.317 29.5061 129.317 29.7011C129.317 29.7831 129.385 29.8081 129.471 29.7551C129.556 29.7021 129.667 29.7261 129.716 29.8071C129.767 29.8881 130.258 30.0551 130.808 30.1771C131.359 30.3001 131.81 30.4411 131.81 30.4911C131.81 30.5411 132.483 30.5811 133.305 30.5811C134.128 30.5811 134.801 30.5311 134.801 30.4701C134.801 30.4081 135.038 30.3051 135.33 30.2411C135.998 30.0941 137.394 28.6811 137.542 28.0011C137.603 27.7241 137.703 27.4981 137.764 27.4981C137.826 27.4981 137.875 26.8981 137.875 26.1651C137.875 25.4311 137.811 24.8311 137.732 24.8311C137.652 24.8311 137.625 24.6851 137.672 24.5061C137.719 24.3271 137.709 24.1581 137.65 24.1311C137.591 24.1041 137.259 23.7271 136.911 23.2931C136.283 22.5091 134.892 21.4721 134.178 21.2561C133.971 21.1931 133.804 21.0681 133.804 20.9771C133.804 20.8861 133.73 20.8571 133.64 20.9131C133.552 20.9681 133.308 20.9191 133.101 20.8031C132.893 20.6881 132.686 20.5841 132.64 20.5731C132.594 20.5621 132.347 20.4661 132.089 20.3591C131.831 20.2521 131.556 20.1651 131.476 20.1651C131.398 20.1651 131.121 20.0781 130.864 19.9721C130.607 19.8661 130.322 19.7651 130.23 19.7471C130.139 19.7301 130.027 19.6981 129.981 19.6761C129.872 19.6251 129.381 19.5251 128.61 19.3981C128.267 19.3411 127.986 19.2411 127.986 19.1751C127.986 19.1101 127.762 19.0891 127.488 19.1291C127.179 19.1751 126.989 19.1291 126.989 19.0091C126.989 18.8791 126.801 18.8521 126.409 18.9251C126.09 18.9851 125.697 18.9751 125.536 18.9011C125.13 18.7161 117.846 18.7011 117.732 18.8851Z" fill="#F8421E"/>
</g>
<defs>
<filter id="filter0_d_2729_3" x="0.73584" y="0.804688" width="143.217" height="92.8672" filterUnits="userSpaceOnUse" color-interpolation-filters="sRGB">
<feFlood flood-opacity="0" result="BackgroundImageFix"/>
<feColorMatrix in="SourceAlpha" type="matrix" values="0 0 0 0 0 0 0 0 0 0 0 0 0 0 0 0 0 0 127 0" result="hardAlpha"/>
<feOffset dy="4"/>
<feGaussianBlur stdDeviation="2"/>
<feComposite in2="hardAlpha" operator="out"/>
<feColorMatrix type="matrix" values="0 0 0 0 0 0 0 0 0 0 0 0 0 0 0 0 0 0 0.25 0"/>
<feBlend mode="normal" in2="BackgroundImageFix" result="effect1_dropShadow_2729_3"/>
<feBlend mode="normal" in="SourceGraphic" in2="effect1_dropShadow_2729_3" result="shape"/>
</filter>
</defs>
</svg>
