<svg width="237" height="230" viewBox="0 0 237 230" fill="none" xmlns="http://www.w3.org/2000/svg">
<ellipse cx="118.702" cy="115" rx="118.112" ry="115" fill="white"/>
<path d="M111.708 34.0051L37.0119 108.202C32.996 112.191 32.996 118.634 37.0119 122.623L111.708 196.819C115.724 200.808 122.21 200.808 126.226 196.819L157.545 165.71C161.142 162.137 161.142 156.345 157.545 152.773C153.949 149.201 148.118 149.201 144.521 152.773L120.778 176.357C119.779 177.35 118.262 177.35 117.262 176.357L57.6121 117.106C56.6125 116.113 56.6125 114.606 57.6121 113.613L117.262 54.3616C118.262 53.3687 119.779 53.3687 120.778 54.3616L144.521 77.9456C148.118 81.5179 153.949 81.5179 157.545 77.9456C161.142 74.3732 161.142 68.5812 157.545 65.0088L126.229 33.9025C122.197 29.9999 115.709 30.0315 111.708 34.0051Z" fill="url(#paint0_linear_2434_247)"/>
<path d="M111.708 34.0051L37.0119 108.202C32.996 112.191 32.996 118.634 37.0119 122.623L111.708 196.819C115.724 200.808 122.21 200.808 126.226 196.819L157.545 165.71C161.142 162.137 161.142 156.345 157.545 152.773C153.949 149.201 148.118 149.201 144.521 152.773L120.778 176.357C119.779 177.35 118.262 177.35 117.262 176.357L57.6121 117.106C56.6125 116.113 56.6125 114.606 57.6121 113.613L117.262 54.3616C119.751 52.2286 123.812 47.9083 129.775 46.8979C134.207 46.1469 139.052 47.7997 144.31 51.8563C140.795 48.3642 134.768 42.3796 126.229 33.9025C122.197 29.9999 115.709 30.0315 111.708 34.0051Z" fill="url(#paint1_linear_2434_247)"/>
<path d="M164.762 145.865C168.358 149.437 174.189 149.437 177.785 145.865L200.888 122.917C204.904 118.928 204.904 112.485 200.888 108.497L177.585 85.4306C173.98 81.8624 168.147 81.8676 164.548 85.4421C160.952 89.0145 160.952 94.8065 164.548 98.3788L180.288 114.013C181.287 115.006 181.287 116.513 180.288 117.506L164.762 132.928C161.165 136.5 161.165 142.292 164.762 145.865Z" fill="url(#paint2_linear_2434_247)"/>
<path d="M119.34 136.004C130.478 136.004 139.508 127.035 139.508 115.971C139.508 104.907 130.478 95.9375 119.34 95.9375C108.201 95.9375 99.1716 104.907 99.1716 115.971C99.1716 127.035 108.201 136.004 119.34 136.004Z" fill="url(#paint3_linear_2434_247)"/>
<defs>
<linearGradient id="paint0_linear_2434_247" x1="7873.95" y1="31.0004" x2="14949.5" y2="4377.45" gradientUnits="userSpaceOnUse">
<stop stop-color="#4285EB"/>
<stop offset="1" stop-color="#2EC7FF"/>
</linearGradient>
<linearGradient id="paint1_linear_2434_247" x1="8826.04" y1="30.9999" x2="5359.7" y2="18051.8" gradientUnits="userSpaceOnUse">
<stop stop-color="#29CDFF"/>
<stop offset="0.378601" stop-color="#148EFF"/>
<stop offset="1" stop-color="#0A60FF"/>
</linearGradient>
<linearGradient id="paint2_linear_2434_247" x1="3092.28" y1="-770.778" x2="-1431.43" y2="6345.71" gradientUnits="userSpaceOnUse">
<stop stop-color="#FA816E"/>
<stop offset="0.414726" stop-color="#F74A5C"/>
<stop offset="1" stop-color="#F51D2C"/>
</linearGradient>
<linearGradient id="paint3_linear_2434_247" x1="2847.18" y1="-1334.05" x2="1346.09" y2="4706" gradientUnits="userSpaceOnUse">
<stop stop-color="#FA8E7D"/>
<stop offset="0.512635" stop-color="#F74A5C"/>
<stop offset="1" stop-color="#F51D2C"/>
</linearGradient>
</defs>
</svg>
