<svg width="237" height="230" viewBox="0 0 237 230" fill="none" xmlns="http://www.w3.org/2000/svg">
<ellipse cx="118.292" cy="115" rx="118.112" ry="115" fill="white"/>
<g clip-path="url(#clip0_2436_350)">
<path d="M52.6627 65.6185C52.3455 56.4524 59.486 48 69.1379 48H168.055C177.707 48 184.848 56.4524 184.531 65.6185C184.223 74.4245 184.62 85.8277 187.491 95.1293C190.373 104.457 195.227 110.356 203.18 111.112V119.703C195.227 120.46 190.373 126.358 187.491 135.686C184.62 144.988 184.223 156.391 184.531 165.197C184.848 174.363 177.707 182.816 168.055 182.816H69.1379C59.486 182.816 52.3455 174.363 52.6627 165.197C52.97 156.391 52.5701 144.988 49.702 135.686C46.8207 126.358 41.9534 120.46 34 119.703V111.112C41.9534 110.356 46.8207 104.457 49.702 95.1293C52.5701 85.8277 52.97 74.4245 52.6627 65.6185Z" fill="url(#paint0_linear_2436_350)"/>
<path fill-rule="evenodd" clip-rule="evenodd" d="M147.305 130.971C147.305 143.594 137.887 151.246 122.258 151.246H92.7837V79.543H122.106C135.138 79.543 143.69 86.5977 143.69 97.4292C143.69 105.032 137.94 111.843 130.608 113.032V113.432C140.587 114.526 147.305 121.432 147.305 130.971ZM104.187 142.153V118.55H119.254C130.046 118.55 135.647 122.525 135.647 130.277C135.647 138.029 130.202 142.153 119.919 142.153H104.187ZM104.187 88.6364H119.357C127.604 88.6364 132.287 92.3141 132.287 98.9723C132.287 106.077 126.841 110.052 116.965 110.052H104.187V88.6364Z" fill="white"/>
</g>
<defs>
<linearGradient id="paint0_linear_2436_350" x1="59.1127" y1="51.3043" x2="206.815" y2="168.607" gradientUnits="userSpaceOnUse">
<stop stop-color="#9013FE"/>
<stop offset="1" stop-color="#6610F2"/>
</linearGradient>
<clipPath id="clip0_2436_350">
<rect width="169.18" height="134.816" fill="white" transform="translate(34 48)"/>
</clipPath>
</defs>
</svg>
