<svg width="237" height="230" viewBox="0 0 237 230" fill="none" xmlns="http://www.w3.org/2000/svg">
<ellipse cx="118.292" cy="115" rx="118.112" ry="115" fill="white"/>
<g clip-path="url(#clip0_2792_2)">
<path d="M89.7266 204.18C105.383 204.18 118.09 191.473 118.09 175.816V147.453H89.7266C74.07 147.453 61.3633 160.16 61.3633 175.816C61.3633 191.473 74.07 204.18 89.7266 204.18Z" fill="#0ACF83"/>
<path d="M61.3633 119.09C61.3633 103.433 74.07 90.7266 89.7266 90.7266H118.09V147.453H89.7266C74.07 147.453 61.3633 134.746 61.3633 119.09Z" fill="#A259FF"/>
<path d="M61.3633 62.3633C61.3633 46.7068 74.07 34 89.7266 34H118.09V90.7266H89.7266C74.07 90.7266 61.3633 78.0198 61.3633 62.3633Z" fill="#F24E1E"/>
<path d="M118.09 34H146.453C162.11 34 174.816 46.7068 174.816 62.3633C174.816 78.0198 162.11 90.7266 146.453 90.7266H118.09V34Z" fill="#FF7262"/>
<path d="M174.816 119.09C174.816 134.746 162.11 147.453 146.453 147.453C130.797 147.453 118.09 134.746 118.09 119.09C118.09 103.433 130.797 90.7266 146.453 90.7266C162.11 90.7266 174.816 103.433 174.816 119.09Z" fill="#1ABCFE"/>
</g>
<defs>
<clipPath id="clip0_2792_2">
<rect width="170.18" height="170.18" fill="white" transform="translate(33 34)"/>
</clipPath>
</defs>
</svg>
