<svg width="237" height="230" viewBox="0 0 237 230" fill="none" xmlns="http://www.w3.org/2000/svg">
<ellipse cx="118.292" cy="115" rx="118.112" ry="115" fill="white"/>
<g clip-path="url(#clip0_2437_464)">
<path d="M202.839 106.696L125.48 29.3413C121.028 24.8862 113.802 24.8862 109.344 29.3413L93.2804 45.4052L113.658 65.783C118.394 64.1829 123.824 65.2563 127.599 69.0311C131.391 72.8301 132.457 78.3068 130.818 83.0574L150.457 102.697C155.208 101.06 160.691 102.119 164.485 105.92C169.789 111.221 169.789 119.814 164.485 125.119C159.18 130.425 150.588 130.425 145.28 125.119C141.291 121.126 140.305 115.267 142.325 110.352L124.01 92.0376L124.008 140.234C125.336 140.891 126.548 141.758 127.599 142.802C132.902 148.103 132.902 156.697 127.599 162.006C122.294 167.309 113.697 167.309 108.4 162.006C103.096 156.697 103.096 148.104 108.4 142.803C109.671 141.531 111.181 140.524 112.844 139.84V91.1939C111.179 90.5142 109.667 89.5066 108.4 88.231C104.381 84.2181 103.415 78.322 105.474 73.388L85.3862 53.2981L32.3429 106.338C27.8857 110.797 27.8857 118.024 32.3429 122.479L109.703 199.835C114.157 204.291 121.381 204.291 125.84 199.835L202.838 122.839C207.294 118.381 207.294 111.151 202.839 106.696Z" fill="#DE4C36"/>
</g>
<defs>
<clipPath id="clip0_2437_464">
<rect width="177.18" height="177.18" fill="white" transform="translate(29 26)"/>
</clipPath>
</defs>
</svg>
