<svg width="237" height="230" viewBox="0 0 237 230" fill="none" xmlns="http://www.w3.org/2000/svg">
<ellipse cx="118.292" cy="115" rx="118.112" ry="115" fill="white"/>
<path d="M47.5892 55.8633H115.142C115.911 55.8633 116.546 56.5336 116.546 57.3664C116.546 57.4274 116.546 57.4883 116.526 57.5493L111.028 130.29C110.971 130.94 110.567 131.448 110.009 131.61L81.8079 141.787C81.5195 141.889 81.1927 141.889 80.9236 141.787C71.4846 138.456 62.0648 134.982 52.6643 131.59C52.1068 131.387 51.7416 130.879 51.7031 130.29L46.1858 57.468C46.1282 56.6555 46.7049 55.9445 47.4931 55.8836L47.5892 55.8633ZM74.1183 111.805V108.393C74.1183 107.56 73.4839 106.91 72.7149 106.91H64.4294C63.6604 106.91 63.026 107.56 63.026 108.393V119.301C63.026 119.991 63.4874 120.581 64.1026 120.743L81.4618 126.512C81.8079 126.634 82.1731 126.593 82.4807 126.431L98.4751 119.504C98.9749 119.28 99.2825 118.793 99.3401 118.265L101.589 91.1673C101.647 90.3548 101.09 89.6438 100.301 89.5626H100.186H72.0036L71.6384 82.2702H101.455C102.224 82.2702 102.858 81.5999 102.858 80.7873V72.0527C102.858 71.2199 102.224 70.5699 101.455 70.5699H61.4305C60.6615 70.5699 60.0271 71.2199 60.0271 72.0527L60.0463 72.2356L61.4112 99.8612C61.4497 100.653 62.0841 101.263 62.8146 101.263V101.283H89.6128L88.8054 111.033L81.4426 114.243L74.1183 111.805ZM92.5733 99.78C92.5733 98.9675 91.9389 98.2971 91.1507 98.2971H64.1603L62.9107 73.5356H100.051V79.3045H70.1581H70.0812C69.3123 79.3451 68.7163 80.0358 68.7548 80.8686L69.2546 91.0251V91.0454C69.2546 91.8782 69.889 92.5283 70.658 92.5283H98.6481L96.6103 117.107L81.8079 123.526L65.852 118.204V109.876H71.2924V112.882C71.2924 113.512 71.6961 114.101 72.292 114.304L81.0774 117.229C81.3849 117.33 81.7118 117.31 82.0386 117.188L90.5548 113.491C91.0931 113.308 91.4968 112.821 91.5352 112.191L92.5541 99.9425L92.5733 99.78Z" fill="#F16528"/>
<g clip-path="url(#clip0_2415_510)">
<path fill-rule="evenodd" clip-rule="evenodd" d="M184.221 133.501L155.637 141.863L127.051 133.501L120.455 55.8633H190.819L184.221 133.501Z" fill="#2062AF"/>
<path fill-rule="evenodd" clip-rule="evenodd" d="M155.636 62.1523V135.195L155.701 135.214L178.833 128.447L184.173 62.1523H155.636Z" fill="#3C9CD7"/>
<path fill-rule="evenodd" clip-rule="evenodd" d="M155.611 81.5639L135.152 90.821L135.83 99.9862L155.611 90.7977L176.652 81.0239L177.525 71.6484L155.611 81.5639Z" fill="white"/>
<mask id="mask0_2415_510" style="mask-type:luminance" maskUnits="userSpaceOnUse" x="135" y="81" width="21" height="20">
<path fill-rule="evenodd" clip-rule="evenodd" d="M135.116 81.5273H155.647V100.027H135.116V81.5273Z" fill="url(#paint0_linear_2415_510)"/>
</mask>
<g mask="url(#mask0_2415_510)">
<path fill-rule="evenodd" clip-rule="evenodd" d="M135.165 90.8391L135.844 100.004L155.624 90.8159V81.582L135.165 90.8391Z" fill="url(#paint1_linear_2415_510)"/>
</g>
<mask id="mask1_2415_510" style="mask-type:luminance" maskUnits="userSpaceOnUse" x="155" y="71" width="23" height="20">
<path fill-rule="evenodd" clip-rule="evenodd" d="M155.575 71.6094H177.56V90.8359H155.575V71.6094Z" fill="url(#paint2_linear_2415_510)"/>
</mask>
<g mask="url(#mask1_2415_510)">
<path fill-rule="evenodd" clip-rule="evenodd" d="M177.537 71.6602L155.624 81.5754V90.8092L176.665 81.0354L177.537 71.6602Z" fill="url(#paint3_linear_2415_510)"/>
</g>
<path fill-rule="evenodd" clip-rule="evenodd" d="M135.183 90.8203L135.862 99.9855L166.213 100.091L165.534 112.311L155.547 115.365L145.946 112.732L145.364 105.147H136.443L137.607 119.79L155.643 125.584L173.582 119.895L175.909 90.8203H135.183Z" fill="url(#paint4_linear_2415_510)"/>
<path fill-rule="evenodd" clip-rule="evenodd" d="M155.611 90.8203H135.152L135.83 99.9855L155.611 100.054V90.8203ZM155.611 115.336L155.514 115.365L145.915 112.732L145.333 105.147H136.413L137.576 119.79L155.611 125.584V115.336Z" fill="black" fill-opacity="0.05098"/>
<path fill-rule="evenodd" clip-rule="evenodd" d="M133.309 71.6484H177.525L176.652 81.0239H134.376L133.309 71.6484Z" fill="url(#paint5_linear_2415_510)"/>
<path fill-rule="evenodd" clip-rule="evenodd" d="M155.611 71.6484H133.309L134.376 81.0239H155.611V71.6484Z" fill="black" fill-opacity="0.05098"/>
</g>
<g clip-path="url(#clip1_2415_510)">
<path d="M86.459 194.929L79.409 119.398H156.873L149.816 194.917L118.094 203.318L86.459 194.929Z" fill="#D4B830"/>
<path d="M118.142 197.674L143.775 190.725L149.805 124.668H118.142V197.674Z" fill="#FDD83C"/>
<path d="M144.641 152.681H130.974V142.971H145.505L146.365 133.488H120.834V162.162H134.056L132.888 174.46L120.835 176.606V186.49L141.953 181.792L144.641 152.681Z" fill="#4D4D4D"/>
<path d="M113.124 133.105H91.4694L92.3686 142.592L103.39 142.592V174.856L97.9881 174.084L97.2975 166.521C97.2975 166.521 90.8078 166.521 87.563 166.521L88.9214 181.409C113.124 186.107 89.0131 181.406 113.124 186.107V133.105Z" fill="black"/>
</g>
<defs>
<linearGradient id="paint0_linear_2415_510" x1="145.381" y1="81.566" x2="145.381" y2="99.9883" gradientUnits="userSpaceOnUse">
<stop stop-color="white" stop-opacity="0"/>
<stop offset="0.388" stop-color="white"/>
<stop offset="1" stop-color="white" stop-opacity="0.831"/>
</linearGradient>
<linearGradient id="paint1_linear_2415_510" x1="145.395" y1="81.582" x2="145.395" y2="100.004" gradientUnits="userSpaceOnUse">
<stop stop-color="#D1D3D4"/>
<stop offset="0.388" stop-color="#D1D3D4"/>
<stop offset="1" stop-color="#D1D3D4"/>
</linearGradient>
<linearGradient id="paint2_linear_2415_510" x1="166.568" y1="71.648" x2="166.568" y2="90.7972" gradientUnits="userSpaceOnUse">
<stop stop-color="white" stop-opacity="0"/>
<stop offset="0.388" stop-color="white"/>
<stop offset="1" stop-color="white" stop-opacity="0.831"/>
</linearGradient>
<linearGradient id="paint3_linear_2415_510" x1="166.581" y1="71.6601" x2="166.581" y2="90.8092" gradientUnits="userSpaceOnUse">
<stop stop-color="#D1D3D4"/>
<stop offset="0.388" stop-color="#D1D3D4"/>
<stop offset="1" stop-color="#D1D3D4"/>
</linearGradient>
<linearGradient id="paint4_linear_2415_510" x1="135.183" y1="108.202" x2="175.909" y2="108.202" gradientUnits="userSpaceOnUse">
<stop stop-color="#E8E7E5"/>
<stop offset="1" stop-color="white"/>
</linearGradient>
<linearGradient id="paint5_linear_2415_510" x1="133.309" y1="76.3362" x2="177.525" y2="76.3362" gradientUnits="userSpaceOnUse">
<stop stop-color="#E8E7E5"/>
<stop offset="1" stop-color="white"/>
</linearGradient>
<clipPath id="clip0_2415_510">
<rect width="70.3637" height="86.0002" fill="white" transform="translate(120.455 55.8633)"/>
</clipPath>
<clipPath id="clip1_2415_510">
<rect width="77.4641" height="94.678" fill="white" transform="translate(79.409 108.637)"/>
</clipPath>
</defs>
</svg>
