<svg width="237" height="230" viewBox="0 0 237 230" fill="none" xmlns="http://www.w3.org/2000/svg">
<ellipse cx="118.292" cy="115" rx="118.112" ry="115" fill="white"/>
<path fill-rule="evenodd" clip-rule="evenodd" d="M206.339 115.247C206.339 104.015 191.915 93.3758 169.789 86.7663C174.899 64.785 172.62 47.302 162.626 41.6998C160.319 40.3889 157.629 39.768 154.685 39.768V47.4814C156.313 47.4814 157.629 47.7988 158.734 48.3783C163.561 51.0691 165.642 61.3353 164.014 74.5406C163.617 77.7833 162.98 81.2054 162.202 84.6964C155.251 83.0406 147.664 81.7573 139.694 80.9294C134.909 74.5406 129.941 68.7314 124.944 63.6535C136.495 53.1665 147.338 47.44 154.713 47.44V39.7266C144.96 39.7266 132.206 46.5017 119.295 58.2582C106.385 46.5707 93.631 39.8645 83.8777 39.8645V47.578C91.2104 47.578 102.096 53.2769 113.661 63.6811C108.693 68.759 103.738 74.5268 99.0244 80.9294C91.0122 81.7573 83.4247 83.0406 76.4742 84.724C75.6532 81.2744 75.0586 77.9213 74.634 74.7062C72.9636 61.5009 75.0303 51.2347 79.815 48.5025C80.8767 47.8816 82.2639 47.6056 83.8919 47.6056V39.9059C80.9191 39.9059 78.2154 40.5269 75.8797 41.8378C65.914 47.44 63.6774 64.8953 68.8301 86.8076C46.747 93.431 32.3931 104.042 32.3931 115.247C32.3931 126.479 46.8178 137.118 68.9433 143.727C63.8331 165.708 66.1122 183.191 76.1062 188.794C78.4136 190.105 81.1032 190.725 84.09 190.725C93.8434 190.725 106.598 183.95 119.508 172.194C132.418 183.881 145.172 190.587 154.926 190.587C157.898 190.587 160.602 189.967 162.938 188.656C172.903 183.053 175.14 165.598 169.987 143.686C191.986 137.09 206.339 126.437 206.339 115.247ZM135.532 115.247C135.532 106.526 128.284 99.4472 119.324 99.4472C110.377 99.4472 103.115 106.512 103.115 115.247C103.115 123.981 110.363 131.046 119.324 131.046C128.284 131.032 135.532 123.967 135.532 115.247ZM160.177 92.1891C158.861 96.6461 157.233 101.241 155.393 105.836C153.935 103.076 152.42 100.303 150.75 97.543C149.122 94.7833 147.381 92.0787 145.639 89.457C150.679 90.1883 155.534 91.0852 160.177 92.1891ZM143.941 129.004C141.18 133.668 138.335 138.097 135.391 142.209C130.111 142.665 124.76 142.899 119.366 142.899C114.015 142.899 108.664 142.651 103.413 142.237C100.468 138.125 97.5947 133.737 94.8343 129.101C92.1447 124.575 89.6957 119.98 87.4591 115.343C89.6533 110.707 92.1447 106.084 94.7918 101.558C97.5522 96.8945 100.398 92.4651 103.342 88.3531C108.622 87.8977 113.973 87.6632 119.366 87.6632C124.717 87.6632 130.068 87.9115 135.32 88.3255C138.264 92.4375 141.138 96.8255 143.898 101.462C146.588 105.988 149.037 110.583 151.273 115.219C149.037 119.842 146.602 124.464 143.941 129.004ZM155.393 124.506C157.304 129.142 158.932 133.765 160.291 138.263C155.648 139.367 150.75 140.305 145.682 141.023C147.423 138.36 149.15 135.627 150.792 132.826C152.406 130.066 153.935 127.265 155.393 124.506ZM119.437 161.376C116.139 158.064 112.84 154.366 109.585 150.323C112.77 150.461 116.04 150.571 119.338 150.571C122.665 150.571 125.963 150.502 129.19 150.323C125.991 154.366 122.693 158.064 119.437 161.376ZM93.0648 141.023C88.0253 140.291 83.1699 139.394 78.5268 138.291C79.8433 133.834 81.4712 129.239 83.3115 124.644C84.7695 127.403 86.2842 130.177 87.9546 132.937C89.6249 135.71 91.3236 138.401 93.0648 141.023ZM119.253 69.1039C122.551 72.4156 125.85 76.1137 129.105 80.1567C125.92 80.0187 122.65 79.9083 119.352 79.9083C116.026 79.9083 112.727 79.9773 109.5 80.1567C112.699 76.1137 115.997 72.4156 119.253 69.1039ZM93.0223 89.457C91.2812 92.1201 89.5542 94.8523 87.9121 97.6534C86.2842 100.413 84.7554 103.187 83.2973 105.946C81.3863 101.31 79.7584 96.6875 78.3994 92.1891C83.0567 91.1128 87.9546 90.1883 93.0223 89.457ZM60.9312 132.73C48.375 127.514 40.2637 120.67 40.2637 115.247C40.2637 109.824 48.3891 102.938 60.9312 97.7638C63.9746 96.4805 67.3154 95.349 70.7553 94.2727C72.7796 101.048 75.4408 108.099 78.7391 115.316C75.4833 122.505 72.8503 129.515 70.8685 136.262C67.3579 135.186 64.0171 134.013 60.9312 132.73ZM80.0132 182.115C75.186 179.424 73.1051 169.158 74.7331 155.953C75.1294 152.71 75.7664 149.288 76.545 145.797C83.4955 147.453 91.083 148.736 99.0527 149.564C103.837 155.953 108.806 161.762 113.803 166.84C102.238 177.313 91.3944 183.053 84.0193 183.053C82.4197 183.012 81.0748 182.708 80.0132 182.115ZM164.113 155.787C165.783 168.993 163.716 179.259 158.932 181.991C157.87 182.612 156.483 182.888 154.855 182.888C147.522 182.888 136.636 177.189 125.071 166.785C130.04 161.707 134.994 155.939 139.708 149.536C147.72 148.709 155.308 147.425 162.258 145.728C163.079 149.219 163.716 152.572 164.113 155.787ZM177.759 132.73C174.715 134.013 171.375 135.144 167.935 136.221C165.911 129.446 163.249 122.394 159.951 115.178C163.207 107.989 165.84 100.979 167.822 94.2313C171.332 95.3076 174.659 96.4805 177.787 97.75C190.343 102.966 198.455 109.81 198.455 115.233C198.426 120.67 190.315 127.541 177.759 132.73Z" fill="#00D8FF"/>
</svg>
