<svg width="237" height="230" viewBox="0 0 237 230" fill="none" xmlns="http://www.w3.org/2000/svg">
<ellipse cx="118.292" cy="115" rx="118.112" ry="115" fill="white"/>
<g clip-path="url(#clip0_2415_405)">
<path fill-rule="evenodd" clip-rule="evenodd" d="M151.352 139.457C157.602 138.85 162.344 133.789 162.128 127.717C161.913 121.645 156.524 116.787 150.059 116.787H149.628C142.946 116.989 137.774 122.252 137.99 128.527C138.205 131.563 139.498 134.194 141.437 136.016C134.11 149.578 122.903 159.496 106.092 167.795C94.6689 173.463 82.8155 175.487 70.9617 174.07C61.2626 172.855 53.7195 168.807 48.9769 162.127C42.0805 152.209 41.4342 141.481 47.2535 130.753C51.3487 123.061 57.8137 117.394 61.9089 114.56C61.0472 111.928 59.7536 107.476 59.1073 104.237C27.8559 125.491 31.0894 154.233 40.572 167.795C47.6843 177.916 62.1244 184.191 78.073 184.191C82.3831 184.191 86.6933 183.786 91.004 182.774C118.592 177.713 139.498 162.33 151.351 139.457H151.352ZM189.284 114.358C172.904 96.343 148.766 86.4251 121.178 86.4251H117.73C115.79 82.7819 111.695 80.3522 107.17 80.3522H106.738C100.058 80.5545 94.8853 85.8172 95.1002 92.0924C95.3157 98.1644 100.704 103.022 107.17 103.022H107.6C112.342 102.82 116.437 99.9862 118.161 96.1402H122.04C138.42 96.1402 153.938 100.593 167.948 109.297C178.724 115.977 186.483 124.681 190.793 135.206C194.457 143.708 194.241 152.006 190.361 159.091C184.327 169.819 174.197 175.689 160.835 175.689C152.214 175.689 144.024 173.26 139.714 171.438C137.343 173.462 133.032 176.7 130.015 178.725C139.283 182.773 148.766 185 157.818 185C178.509 185 193.811 174.272 199.63 163.544C205.88 151.804 205.449 131.563 189.285 114.358H189.284ZM79.798 142.898C80.0134 148.97 85.4017 153.828 91.8672 153.828H92.2986C98.9801 153.626 104.152 148.363 103.937 142.088C103.722 136.015 98.3327 131.158 91.8672 131.158H91.4364C91.005 131.158 90.3582 131.158 89.9278 131.36C81.0911 117.596 77.4272 102.618 78.7208 86.4246C79.582 74.2797 83.8932 63.7543 91.4364 55.0503C97.6865 47.5611 109.756 43.9175 117.946 43.7156C140.791 43.3105 150.489 70.0286 151.136 80.7573C153.938 81.3642 158.679 82.7814 161.913 83.7935C159.326 51.0029 137.774 34 117.084 34C97.6865 34 79.798 47.157 72.6851 66.5887C62.7712 92.4975 69.2372 117.394 81.3065 137.028C80.2293 138.445 79.5825 140.672 79.798 142.898V142.898V142.898Z" fill="#764ABC"/>
</g>
<defs>
<clipPath id="clip0_2415_405">
<rect width="169.365" height="151" fill="white" transform="translate(34 34)"/>
</clipPath>
</defs>
</svg>
