<svg width="237" height="230" viewBox="0 0 237 230" fill="none" xmlns="http://www.w3.org/2000/svg">
<ellipse cx="118.161" cy="115" rx="118.112" ry="115" fill="white"/>
<path fill-rule="evenodd" clip-rule="evenodd" d="M187.223 121.111C181.279 121.139 176.137 122.576 171.824 124.691C170.235 121.539 168.645 118.789 168.369 116.729C168.064 114.338 167.705 112.886 168.064 110.025C168.424 107.177 170.083 103.127 170.083 102.795C170.055 102.491 169.723 101.04 166.295 100.998C162.881 100.971 159.923 101.662 159.591 102.56C159.259 103.459 158.596 105.519 158.167 107.634C157.573 110.757 151.339 121.802 147.786 127.608C146.625 125.355 145.63 123.364 145.436 121.774C145.132 119.383 144.773 117.932 145.132 115.07C145.491 112.223 147.15 108.173 147.15 107.841C147.123 107.537 146.791 106.085 143.363 106.044C139.948 106.016 136.99 106.707 136.659 107.606C136.327 108.504 135.967 110.619 135.235 112.679C134.544 114.739 126.25 133.178 124.093 137.989C123.001 140.449 122.034 142.398 121.343 143.725C120.651 145.052 121.315 143.822 121.246 143.96C120.651 145.094 120.32 145.716 120.32 145.716V145.743C119.85 146.573 119.352 147.375 119.131 147.375C118.965 147.375 118.633 145.149 119.2 142.094C120.43 135.694 123.416 125.7 123.375 125.341C123.375 125.175 123.941 123.419 121.453 122.521C119.034 121.622 118.163 123.115 117.97 123.115C117.776 123.115 117.61 123.64 117.61 123.64C117.61 123.64 120.292 112.389 112.468 112.389C107.561 112.389 100.788 117.724 97.4426 122.604C95.3139 123.765 90.8076 126.225 86.0248 128.838C84.2002 129.833 82.3064 130.898 80.5233 131.851L80.1639 131.45C70.6674 121.374 53.1122 114.213 53.8448 100.611C54.1075 95.6628 55.8353 82.6278 87.5592 66.8419C113.533 53.9037 134.336 57.4562 137.958 65.3491C143.1 76.6286 126.844 97.598 99.834 100.611C89.5497 101.773 84.1449 97.7916 82.7764 96.2987C81.3526 94.7367 81.1453 94.6676 80.62 94.9717C79.763 95.4417 80.2883 96.8239 80.62 97.6533C81.4217 99.7406 84.7393 103.459 90.3791 105.311C95.3277 106.942 107.395 107.827 121.992 102.187C138.345 95.8563 151.117 78.2597 147.371 63.5659C143.556 48.6233 118.744 43.7023 95.2862 52.0376C81.325 57.0138 66.1888 64.7823 55.3101 74.9699C42.3717 87.0373 40.3121 97.5842 41.1691 101.966C44.1825 117.6 65.7188 127.774 74.3444 135.307C73.9159 135.542 73.515 135.777 73.1556 135.971C68.8428 138.099 52.4211 146.683 48.3018 155.779C43.6573 166.063 49.0344 173.472 52.6146 174.468C63.7006 177.55 75.0493 172.007 81.1868 162.884C87.2965 153.761 86.5639 141.914 83.744 136.51L83.6473 136.316L87.0339 134.326C89.2179 133.026 91.3743 131.838 93.2681 130.815C92.2037 133.704 91.4434 137.118 91.0426 142.094C90.5726 147.927 92.964 155.502 96.1156 158.488C97.5117 159.788 99.1705 159.815 100.193 159.815C103.843 159.815 105.501 156.802 107.326 153.18C109.579 148.771 111.57 143.656 111.57 143.656C111.57 143.656 109.082 157.493 115.883 157.493C118.371 157.493 120.859 154.272 121.992 152.613V152.641C121.992 152.641 122.061 152.544 122.186 152.309C122.324 152.102 122.462 151.895 122.587 151.673V151.604C123.582 149.876 125.807 145.937 129.125 139.399C133.41 130.967 137.516 120.42 137.516 120.42C137.516 120.42 137.916 123.005 139.147 127.248C139.879 129.764 141.469 132.529 142.699 135.21C141.704 136.606 141.11 137.394 141.11 137.394L141.137 137.422C140.335 138.486 139.451 139.606 138.511 140.739C135.124 144.79 131.074 149.393 130.549 150.72C129.913 152.282 130.051 153.443 131.281 154.369C132.18 155.032 133.77 155.171 135.456 155.032C138.511 154.839 140.626 154.065 141.69 153.609C143.349 153.014 145.243 152.116 147.067 150.789C150.385 148.328 152.403 144.845 152.209 140.2C152.113 137.643 151.283 135.127 150.247 132.736C150.551 132.307 150.841 131.879 151.145 131.409C156.384 123.751 160.434 115.319 160.434 115.319C160.434 115.319 160.835 117.904 162.065 122.148C162.701 124.304 163.959 126.654 165.079 128.976C160.171 132.985 157.089 137.629 156.025 140.684C154.062 146.324 155.596 148.881 158.485 149.476C159.784 149.738 161.637 149.144 163.033 148.549C164.761 147.983 166.848 147.029 168.769 145.591C172.087 143.131 175.266 139.717 175.1 135.114C175.004 132.985 174.437 130.898 173.677 128.907C177.851 127.179 183.27 126.184 190.126 127.013C204.889 128.741 207.806 137.961 207.253 141.804C206.686 145.647 203.603 147.775 202.581 148.439C201.558 149.075 201.226 149.296 201.323 149.766C201.461 150.457 201.917 150.429 202.815 150.291C204.046 150.098 210.584 147.14 210.847 140.035C211.248 130.967 202.581 121.014 187.223 121.111ZM73.3629 159.497C68.4834 164.833 61.6134 166.865 58.6967 165.137C55.5451 163.312 56.7753 155.447 62.7745 149.78C66.4238 146.324 71.1651 143.145 74.2891 141.182C74.9802 140.753 76.0446 140.117 77.3025 139.357C77.496 139.219 77.6342 139.164 77.6342 139.164C77.8692 139.025 78.1319 138.86 78.3945 138.694C80.62 146.794 78.5051 153.885 73.3629 159.497ZM109.026 135.252C107.34 139.399 103.746 150.056 101.59 149.448C99.7373 148.95 98.6038 140.892 101.23 132.93C102.557 128.921 105.377 124.138 107.036 122.286C109.717 119.3 112.648 118.305 113.367 119.535C114.238 121.111 110.091 132.653 109.026 135.252ZM138.456 149.31C137.723 149.669 137.059 149.946 136.769 149.738C136.534 149.6 137.073 149.102 137.073 149.102C137.073 149.102 140.75 145.149 142.215 143.324C143.045 142.26 144.04 141.03 145.104 139.647V140.048C145.091 144.831 140.515 148.024 138.456 149.31ZM161.153 144.14C160.628 143.739 160.683 142.509 162.48 138.666C163.171 137.146 164.775 134.588 167.525 132.169C167.857 133.165 168.051 134.132 168.023 135.017C167.981 140.988 163.738 143.214 161.153 144.14Z" fill="#CF649A"/>
</svg>
