<svg width="210" height="386" viewBox="0 0 210 386" fill="none" xmlns="http://www.w3.org/2000/svg">
<rect width="210" height="386" rx="15" fill="#ABABAB"/>
<rect x="5.45801" y="5.54688" width="198" height="374" rx="10" fill="#FAFAFA"/>
<circle cx="104.716" cy="11.9096" r="4" transform="rotate(-5 104.716 11.9096)" fill="#616161"/>
<g clip-path="url(#clip0_2927_137)">
<path d="M105.453 128C88.0753 128 74 142.003 74 159.274C74 173.094 83.0113 184.814 95.5061 188.946C97.0788 189.24 97.6554 188.272 97.6554 187.442C97.6554 186.7 97.6291 184.732 97.6161 182.125C88.8668 184.01 87.0216 177.929 87.0216 177.929C85.5905 174.32 83.5224 173.354 83.5224 173.354C80.6733 171.415 83.7426 171.455 83.7426 171.455C86.901 171.673 88.5602 174.678 88.5602 174.678C91.3648 179.459 95.9228 178.078 97.721 177.279C98.0039 175.256 98.8138 173.879 99.713 173.097C92.7277 172.315 85.386 169.625 85.386 157.643C85.386 154.23 86.6048 151.44 88.6231 149.252C88.2692 148.461 87.2077 145.281 88.8983 140.974C88.8983 140.974 91.5325 140.136 97.5479 144.181C100.064 143.486 102.738 143.141 105.411 143.125C108.085 143.141 110.758 143.486 113.274 144.181C119.251 140.136 121.885 140.974 121.885 140.974C123.575 145.281 122.514 148.461 122.199 149.252C124.205 151.44 125.423 154.23 125.423 157.643C125.423 169.657 118.071 172.301 111.073 173.07C112.174 174.009 113.196 175.927 113.196 178.857C113.196 183.042 113.156 186.405 113.156 187.421C113.156 188.241 113.707 189.219 115.319 188.906C127.903 184.801 136.906 173.073 136.906 159.274C136.906 142.003 122.823 128 105.453 128Z" fill="#ABABAB"/>
</g>
<path d="M52.4232 210.48L47.0332 225H44.2832L38.8932 210.48H41.4012L44.7892 220.138L45.6692 223.02L46.5492 220.16L49.9372 210.48H52.4232ZM55.9251 212.152C55.4118 212.152 55.0158 212.027 54.7371 211.778C54.4731 211.514 54.3411 211.147 54.3411 210.678C54.3411 210.209 54.4731 209.849 54.7371 209.6C55.0158 209.351 55.4118 209.226 55.9251 209.226C56.4238 209.226 56.8051 209.351 57.0691 209.6C57.3478 209.849 57.4871 210.209 57.4871 210.678C57.4871 211.147 57.3478 211.514 57.0691 211.778C56.8051 212.027 56.4238 212.152 55.9251 212.152ZM57.0911 214V225H54.7371V214H57.0911ZM65.6142 225.22C64.5142 225.22 63.5462 224.993 62.7102 224.538C61.8742 224.083 61.2216 223.431 60.7522 222.58C60.2976 221.715 60.0702 220.688 60.0702 219.5C60.0702 218.312 60.2976 217.293 60.7522 216.442C61.2216 215.577 61.8669 214.917 62.6882 214.462C63.5096 214.007 64.4409 213.78 65.4822 213.78C66.5529 213.78 67.4622 214 68.2102 214.44C68.9582 214.88 69.5302 215.481 69.9262 216.244C70.3222 217.007 70.5202 217.872 70.5202 218.84C70.5202 219.104 70.5129 219.353 70.4982 219.588C70.4836 219.823 70.4616 220.028 70.4322 220.204H61.5882V218.4H69.3982L68.2322 218.752C68.2322 217.755 67.9829 216.992 67.4842 216.464C66.9856 215.921 66.3036 215.65 65.4382 215.65C64.8076 215.65 64.2576 215.797 63.7882 216.09C63.3189 216.383 62.9596 216.823 62.7102 217.41C62.4609 217.982 62.3362 218.686 62.3362 219.522C62.3362 220.343 62.4682 221.04 62.7322 221.612C62.9962 222.184 63.3702 222.617 63.8542 222.91C64.3382 223.203 64.9102 223.35 65.5702 223.35C66.3036 223.35 66.8976 223.211 67.3522 222.932C67.8069 222.653 68.1662 222.265 68.4302 221.766L70.3002 222.646C70.0362 223.174 69.6769 223.636 69.2222 224.032C68.7822 224.413 68.2542 224.707 67.6382 224.912C67.0222 225.117 66.3476 225.22 65.6142 225.22ZM87.2057 214H89.7577L86.0617 225H83.4877L80.7157 216.838L78.0977 225H75.5237L71.8497 214H74.3797L76.8877 222.69L79.6157 214H81.9697L84.6977 222.69L87.2057 214ZM104.92 225.22C103.556 225.22 102.375 224.919 101.378 224.318C100.381 223.717 99.6035 222.866 99.0462 221.766C98.4888 220.651 98.2102 219.309 98.2102 217.74C98.2102 216.2 98.4962 214.873 99.0682 213.758C99.6548 212.643 100.476 211.785 101.532 211.184C102.603 210.568 103.827 210.26 105.206 210.26C106.717 210.26 107.934 210.539 108.858 211.096C109.797 211.653 110.545 212.519 111.102 213.692L108.924 214.726C108.645 213.919 108.183 213.318 107.538 212.922C106.907 212.511 106.137 212.306 105.228 212.306C104.319 212.306 103.519 212.519 102.83 212.944C102.155 213.369 101.627 213.993 101.246 214.814C100.865 215.621 100.674 216.596 100.674 217.74C100.674 218.899 100.843 219.889 101.18 220.71C101.517 221.517 102.023 222.133 102.698 222.558C103.387 222.983 104.231 223.196 105.228 223.196C105.771 223.196 106.277 223.13 106.746 222.998C107.215 222.851 107.626 222.646 107.978 222.382C108.33 222.103 108.601 221.759 108.792 221.348C108.997 220.923 109.1 220.424 109.1 219.852V219.434H104.876V217.52H111.19V225H109.43L109.298 222.074L109.738 222.294C109.386 223.218 108.799 223.937 107.978 224.45C107.171 224.963 106.152 225.22 104.92 225.22ZM115.802 212.152C115.289 212.152 114.893 212.027 114.614 211.778C114.35 211.514 114.218 211.147 114.218 210.678C114.218 210.209 114.35 209.849 114.614 209.6C114.893 209.351 115.289 209.226 115.802 209.226C116.301 209.226 116.682 209.351 116.946 209.6C117.225 209.849 117.364 210.209 117.364 210.678C117.364 211.147 117.225 211.514 116.946 211.778C116.682 212.027 116.301 212.152 115.802 212.152ZM116.968 214V225H114.614V214H116.968ZM123.863 210.766V221.7C123.863 222.243 124.003 222.639 124.281 222.888C124.575 223.137 124.963 223.262 125.447 223.262C125.843 223.262 126.188 223.203 126.481 223.086C126.775 222.954 127.046 222.778 127.295 222.558L127.823 224.274C127.486 224.567 127.068 224.802 126.569 224.978C126.085 225.139 125.543 225.22 124.941 225.22C124.311 225.22 123.731 225.117 123.203 224.912C122.675 224.707 122.265 224.377 121.971 223.922C121.678 223.453 121.524 222.844 121.509 222.096V211.426L123.863 210.766ZM127.647 214V215.848H119.397V214H127.647ZM142.207 210.48V225H139.831V210.48H142.207ZM132.659 210.48V225H130.305V210.48H132.659ZM141.019 216.64V218.664H131.493V216.64H141.019ZM149.94 225.22C149.222 225.22 148.554 225.088 147.938 224.824C147.337 224.56 146.853 224.135 146.486 223.548C146.12 222.961 145.936 222.199 145.936 221.26V214H148.29V220.666C148.29 221.663 148.503 222.353 148.928 222.734C149.354 223.101 149.948 223.284 150.71 223.284C151.077 223.284 151.429 223.225 151.766 223.108C152.118 222.976 152.434 222.778 152.712 222.514C152.991 222.235 153.204 221.883 153.35 221.458C153.512 221.033 153.592 220.534 153.592 219.962V214H155.946V225H153.878L153.768 223.218C153.387 223.907 152.874 224.413 152.228 224.736C151.583 225.059 150.82 225.22 149.94 225.22ZM165.52 225.22C164.875 225.22 164.281 225.095 163.738 224.846C163.21 224.597 162.763 224.252 162.396 223.812C162.029 223.357 161.758 222.851 161.582 222.294L161.868 221.92L161.692 225H159.624V209.05H161.978V216.772L161.714 216.398C161.993 215.635 162.469 215.012 163.144 214.528C163.819 214.029 164.633 213.78 165.586 213.78C166.466 213.78 167.273 214.007 168.006 214.462C168.754 214.917 169.341 215.569 169.766 216.42C170.191 217.271 170.404 218.305 170.404 219.522C170.404 220.71 170.184 221.729 169.744 222.58C169.319 223.431 168.732 224.083 167.984 224.538C167.251 224.993 166.429 225.22 165.52 225.22ZM165.014 223.328C165.967 223.328 166.708 222.991 167.236 222.316C167.779 221.627 168.05 220.688 168.05 219.5C168.05 218.312 167.786 217.381 167.258 216.706C166.73 216.031 165.989 215.694 165.036 215.694C164.42 215.694 163.885 215.855 163.43 216.178C162.975 216.486 162.616 216.926 162.352 217.498C162.103 218.07 161.978 218.752 161.978 219.544C161.978 220.321 162.103 220.996 162.352 221.568C162.601 222.125 162.953 222.558 163.408 222.866C163.877 223.174 164.413 223.328 165.014 223.328ZM52.0731 253V242H54.0751L54.2951 243.98C54.5884 243.261 55.0211 242.719 55.5931 242.352C56.1797 241.971 56.8984 241.78 57.7491 241.78C57.9691 241.78 58.1891 241.802 58.4091 241.846C58.6291 241.875 58.8124 241.927 58.9591 242L58.6291 244.068C58.4677 244.009 58.2844 243.965 58.0791 243.936C57.8884 243.892 57.6244 243.87 57.2871 243.87C56.8324 243.87 56.3851 243.995 55.9451 244.244C55.5051 244.479 55.1384 244.838 54.8451 245.322C54.5664 245.806 54.4271 246.422 54.4271 247.17V253H52.0731ZM65.7431 253.22C64.6431 253.22 63.6751 252.993 62.8391 252.538C62.0031 252.083 61.3505 251.431 60.8811 250.58C60.4265 249.715 60.1991 248.688 60.1991 247.5C60.1991 246.312 60.4265 245.293 60.8811 244.442C61.3505 243.577 61.9958 242.917 62.8171 242.462C63.6385 242.007 64.5698 241.78 65.6111 241.78C66.6818 241.78 67.5911 242 68.3391 242.44C69.0871 242.88 69.6591 243.481 70.0551 244.244C70.4511 245.007 70.6491 245.872 70.6491 246.84C70.6491 247.104 70.6418 247.353 70.6271 247.588C70.6125 247.823 70.5905 248.028 70.5611 248.204H61.7171V246.4H69.5271L68.3611 246.752C68.3611 245.755 68.1118 244.992 67.6131 244.464C67.1145 243.921 66.4325 243.65 65.5671 243.65C64.9365 243.65 64.3865 243.797 63.9171 244.09C63.4478 244.383 63.0885 244.823 62.8391 245.41C62.5898 245.982 62.4651 246.686 62.4651 247.522C62.4651 248.343 62.5971 249.04 62.8611 249.612C63.1251 250.184 63.4991 250.617 63.9831 250.91C64.4671 251.203 65.0391 251.35 65.6991 251.35C66.4325 251.35 67.0265 251.211 67.4811 250.932C67.9358 250.653 68.2951 250.265 68.5591 249.766L70.4291 250.646C70.1651 251.174 69.8058 251.636 69.3511 252.032C68.9111 252.413 68.3831 252.707 67.7671 252.912C67.1511 253.117 66.4765 253.22 65.7431 253.22ZM73.6219 257.62V242H75.7119L75.8879 245.08L75.5799 244.706C75.7559 244.134 76.0272 243.628 76.3939 243.188C76.7606 242.748 77.2152 242.403 77.7579 242.154C78.3152 241.905 78.9239 241.78 79.5839 241.78C80.4786 241.78 81.2926 242.007 82.0259 242.462C82.7592 242.917 83.3386 243.569 83.7639 244.42C84.1892 245.256 84.4019 246.275 84.4019 247.478C84.4019 248.681 84.1819 249.715 83.7419 250.58C83.3166 251.431 82.7299 252.083 81.9819 252.538C81.2486 252.993 80.4272 253.22 79.5179 253.22C78.5792 253.22 77.7799 252.978 77.1199 252.494C76.4599 251.995 75.9906 251.365 75.7119 250.602L75.9759 250.228V257.62H73.6219ZM79.0119 251.306C79.9652 251.306 80.7059 250.969 81.2339 250.294C81.7766 249.619 82.0479 248.688 82.0479 247.5C82.0479 246.312 81.7839 245.381 81.2559 244.706C80.7279 244.017 79.9946 243.672 79.0559 243.672C78.4399 243.672 77.8972 243.833 77.4279 244.156C76.9732 244.464 76.6139 244.904 76.3499 245.476C76.1006 246.033 75.9759 246.708 75.9759 247.5C75.9759 248.277 76.1006 248.952 76.3499 249.524C76.5992 250.096 76.9512 250.536 77.4059 250.844C77.8606 251.152 78.3959 251.306 79.0119 251.306ZM92.1889 241.78C93.2595 241.78 94.2055 242.007 95.0269 242.462C95.8482 242.917 96.4862 243.577 96.9409 244.442C97.4102 245.293 97.6449 246.312 97.6449 247.5C97.6449 248.688 97.4102 249.715 96.9409 250.58C96.4862 251.431 95.8482 252.083 95.0269 252.538C94.2055 252.993 93.2595 253.22 92.1889 253.22C91.1182 253.22 90.1722 252.993 89.3509 252.538C88.5295 252.083 87.8842 251.431 87.4149 250.58C86.9455 249.715 86.7109 248.688 86.7109 247.5C86.7109 246.312 86.9455 245.293 87.4149 244.442C87.8842 243.577 88.5295 242.917 89.3509 242.462C90.1722 242.007 91.1182 241.78 92.1889 241.78ZM92.1889 243.628C91.5289 243.628 90.9642 243.782 90.4949 244.09C90.0402 244.383 89.6882 244.816 89.4389 245.388C89.1895 245.96 89.0649 246.664 89.0649 247.5C89.0649 248.321 89.1895 249.025 89.4389 249.612C89.6882 250.184 90.0402 250.624 90.4949 250.932C90.9642 251.225 91.5289 251.372 92.1889 251.372C92.8489 251.372 93.4062 251.225 93.8609 250.932C94.3155 250.624 94.6675 250.184 94.9169 249.612C95.1662 249.025 95.2909 248.321 95.2909 247.5C95.2909 246.664 95.1662 245.96 94.9169 245.388C94.6675 244.816 94.3155 244.383 93.8609 244.09C93.4062 243.782 92.8489 243.628 92.1889 243.628ZM104.786 253.22C103.686 253.22 102.682 253.007 101.772 252.582C100.863 252.157 100.144 251.555 99.6163 250.778L101.244 249.37C101.567 249.971 102.029 250.455 102.63 250.822C103.246 251.174 103.98 251.35 104.83 251.35C105.505 251.35 106.04 251.233 106.436 250.998C106.832 250.763 107.03 250.433 107.03 250.008C107.03 249.729 106.935 249.487 106.744 249.282C106.568 249.062 106.224 248.893 105.71 248.776L103.4 248.292C102.227 248.057 101.391 247.683 100.892 247.17C100.394 246.642 100.144 245.975 100.144 245.168C100.144 244.567 100.32 244.009 100.672 243.496C101.024 242.983 101.538 242.572 102.212 242.264C102.902 241.941 103.723 241.78 104.676 241.78C105.776 241.78 106.715 241.978 107.492 242.374C108.27 242.755 108.864 243.305 109.274 244.024L107.646 245.388C107.368 244.801 106.957 244.369 106.414 244.09C105.872 243.797 105.307 243.65 104.72 243.65C104.251 243.65 103.848 243.709 103.51 243.826C103.173 243.943 102.916 244.105 102.74 244.31C102.564 244.515 102.476 244.757 102.476 245.036C102.476 245.329 102.586 245.586 102.806 245.806C103.026 246.026 103.422 246.195 103.994 246.312L106.502 246.84C107.558 247.045 108.299 247.397 108.724 247.896C109.164 248.38 109.384 248.974 109.384 249.678C109.384 250.382 109.201 251.005 108.834 251.548C108.468 252.076 107.94 252.487 107.25 252.78C106.561 253.073 105.74 253.22 104.786 253.22ZM113.439 240.152C112.925 240.152 112.529 240.027 112.251 239.778C111.987 239.514 111.855 239.147 111.855 238.678C111.855 238.209 111.987 237.849 112.251 237.6C112.529 237.351 112.925 237.226 113.439 237.226C113.937 237.226 114.319 237.351 114.583 237.6C114.861 237.849 115.001 238.209 115.001 238.678C115.001 239.147 114.861 239.514 114.583 239.778C114.319 240.027 113.937 240.152 113.439 240.152ZM114.605 242V253H112.251V242H114.605ZM121.5 238.766V249.7C121.5 250.243 121.639 250.639 121.918 250.888C122.211 251.137 122.6 251.262 123.084 251.262C123.48 251.262 123.825 251.203 124.118 251.086C124.411 250.954 124.683 250.778 124.932 250.558L125.46 252.274C125.123 252.567 124.705 252.802 124.206 252.978C123.722 253.139 123.179 253.22 122.578 253.22C121.947 253.22 121.368 253.117 120.84 252.912C120.312 252.707 119.901 252.377 119.608 251.922C119.315 251.453 119.161 250.844 119.146 250.096V239.426L121.5 238.766ZM125.284 242V243.848H117.034V242H125.284ZM132.386 241.78C133.457 241.78 134.403 242.007 135.224 242.462C136.045 242.917 136.683 243.577 137.138 244.442C137.607 245.293 137.842 246.312 137.842 247.5C137.842 248.688 137.607 249.715 137.138 250.58C136.683 251.431 136.045 252.083 135.224 252.538C134.403 252.993 133.457 253.22 132.386 253.22C131.315 253.22 130.369 252.993 129.548 252.538C128.727 252.083 128.081 251.431 127.612 250.58C127.143 249.715 126.908 248.688 126.908 247.5C126.908 246.312 127.143 245.293 127.612 244.442C128.081 243.577 128.727 242.917 129.548 242.462C130.369 242.007 131.315 241.78 132.386 241.78ZM132.386 243.628C131.726 243.628 131.161 243.782 130.692 244.09C130.237 244.383 129.885 244.816 129.636 245.388C129.387 245.96 129.262 246.664 129.262 247.5C129.262 248.321 129.387 249.025 129.636 249.612C129.885 250.184 130.237 250.624 130.692 250.932C131.161 251.225 131.726 251.372 132.386 251.372C133.046 251.372 133.603 251.225 134.058 250.932C134.513 250.624 134.865 250.184 135.114 249.612C135.363 249.025 135.488 248.321 135.488 247.5C135.488 246.664 135.363 245.96 135.114 245.388C134.865 244.816 134.513 244.383 134.058 244.09C133.603 243.782 133.046 243.628 132.386 243.628ZM140.804 253V242H142.806L143.026 243.98C143.319 243.261 143.752 242.719 144.324 242.352C144.91 241.971 145.629 241.78 146.48 241.78C146.7 241.78 146.92 241.802 147.14 241.846C147.36 241.875 147.543 241.927 147.69 242L147.36 244.068C147.198 244.009 147.015 243.965 146.81 243.936C146.619 243.892 146.355 243.87 146.018 243.87C145.563 243.87 145.116 243.995 144.676 244.244C144.236 244.479 143.869 244.838 143.576 245.322C143.297 245.806 143.158 246.422 143.158 247.17V253H140.804ZM159.571 242L154.753 254.298C154.43 255.149 154.078 255.823 153.697 256.322C153.33 256.821 152.905 257.18 152.421 257.4C151.937 257.62 151.372 257.73 150.727 257.73C150.199 257.73 149.708 257.657 149.253 257.51C148.813 257.378 148.424 257.195 148.087 256.96L148.659 255.134C148.938 255.369 149.231 255.545 149.539 255.662C149.862 255.779 150.206 255.838 150.573 255.838C150.969 255.838 151.321 255.728 151.629 255.508C151.952 255.303 152.238 254.885 152.487 254.254L152.971 253.066L151.805 250.338L148.373 242H151.013L153.455 248.908L154.093 250.976L154.819 248.71L157.129 242H159.571Z" fill="#ABABAB"/>
<defs>
<clipPath id="clip0_2927_137">
<rect width="62.9062" height="61" fill="white" transform="translate(74 128)"/>
</clipPath>
</defs>
</svg>
