<svg width="462" height="316" viewBox="0 0 462 316" fill="none" xmlns="http://www.w3.org/2000/svg">
<rect width="462" height="316" rx="15" fill="#ABABAB"/>
<rect x="7" y="7" width="428" height="303" rx="10" fill="#FAFAFA"/>
<circle cx="448" cy="158" r="8" fill="white"/>
<path d="M164.135 165.285C171.421 154.938 174.033 141.61 170.652 128.992C170.446 128.225 169.587 127.729 168.82 127.934C156.202 131.315 145.973 140.228 140.648 151.724C136.162 153.105 132.427 156.065 130.067 160.152C127.686 164.276 126.99 169.108 128.117 173.746C128.39 174.884 130.366 175.576 131.015 173.791C131.354 172.857 131.642 171.927 132.11 171.117C133.275 169.098 134.994 167.532 137.063 166.567C137.192 166.774 137.368 166.959 137.592 167.088L152.357 175.613C152.582 175.743 152.829 175.803 153.074 175.811C153.273 178.085 152.775 180.357 151.61 182.375C151.142 183.185 150.463 183.873 149.842 184.661C148.544 186.304 150.377 187.445 151.33 187.148C155.905 185.785 159.746 182.786 162.127 178.662C164.474 174.568 165.189 169.847 164.135 165.285ZM168.118 131.251C168.997 135.081 169.272 138.978 169.023 142.804L157.672 136.251C160.857 134.102 164.362 132.405 168.118 131.251ZM130.657 167.936C130.86 165.743 131.542 163.612 132.671 161.656C134.196 159.014 136.417 156.923 139.089 155.576C139.044 155.682 137.402 161.662 137.156 163.298C134.562 164.193 132.326 165.793 130.657 167.936ZM153.001 172.513L139.943 164.973C141.243 154.261 146.827 144.676 155.024 138.161L168.681 146.046C167.137 156.402 161.628 166.03 153.001 172.513ZM155.858 174.096C157.653 172.657 161.524 168.628 161.58 168.56C161.755 171.536 161.055 174.504 159.523 177.158C158.393 179.115 156.876 180.764 155.091 182.043C156.1 179.518 156.368 176.782 155.858 174.096Z" fill="#ABABAB"/>
<path d="M138.471 170.486C137.748 170.069 136.837 170.324 136.427 171.034L132.664 177.551C132.247 178.273 132.502 179.185 133.212 179.595C133.922 180.005 134.846 179.757 135.256 179.047L139.018 172.53C139.436 171.808 139.181 170.896 138.471 170.486Z" fill="#ABABAB"/>
<path d="M143.717 173.517C143.355 173.308 142.945 173.271 142.571 173.371C142.571 173.371 142.571 173.371 142.552 173.376C142.316 173.439 142.089 173.574 141.897 173.762C141.807 173.86 141.718 173.958 141.646 174.082L134.128 187.103C134.071 187.203 134.025 187.31 133.993 187.424C133.799 188.076 134.065 188.795 134.676 189.147C135.286 189.5 136.042 189.371 136.51 188.877C136.592 188.792 136.662 188.699 136.72 188.6L144.252 175.554C144.324 175.429 144.376 175.31 144.403 175.176C144.583 174.549 144.315 173.862 143.717 173.517Z" fill="#ABABAB"/>
<path d="M148.962 176.545C148.24 176.128 147.328 176.383 146.918 177.093L143.156 183.609C142.739 184.332 142.993 185.243 143.704 185.653C144.414 186.063 145.338 185.816 145.748 185.106L149.51 178.589C149.94 177.874 149.685 176.962 148.962 176.545Z" fill="#ABABAB"/>
<path d="M218.636 136.16L212.756 152H209.756L203.876 136.16H206.612L210.308 146.696L211.268 149.84L212.228 146.72L215.924 136.16H218.636ZM222.456 137.984C221.896 137.984 221.464 137.848 221.16 137.576C220.872 137.288 220.728 136.888 220.728 136.376C220.728 135.864 220.872 135.472 221.16 135.2C221.464 134.928 221.896 134.792 222.456 134.792C223 134.792 223.416 134.928 223.704 135.2C224.008 135.472 224.16 135.864 224.16 136.376C224.16 136.888 224.008 137.288 223.704 137.576C223.416 137.848 223 137.984 222.456 137.984ZM223.728 140V152H221.16V140H223.728ZM233.026 152.24C231.826 152.24 230.77 151.992 229.858 151.496C228.946 151 228.234 150.288 227.722 149.36C227.226 148.416 226.978 147.296 226.978 146C226.978 144.704 227.226 143.592 227.722 142.664C228.234 141.72 228.938 141 229.834 140.504C230.73 140.008 231.746 139.76 232.882 139.76C234.05 139.76 235.042 140 235.858 140.48C236.674 140.96 237.298 141.616 237.73 142.448C238.162 143.28 238.378 144.224 238.378 145.28C238.378 145.568 238.37 145.84 238.354 146.096C238.338 146.352 238.314 146.576 238.282 146.768H228.634V144.8H237.154L235.882 145.184C235.882 144.096 235.61 143.264 235.066 142.688C234.522 142.096 233.778 141.8 232.834 141.8C232.146 141.8 231.546 141.96 231.034 142.28C230.522 142.6 230.13 143.08 229.858 143.72C229.586 144.344 229.45 145.112 229.45 146.024C229.45 146.92 229.594 147.68 229.882 148.304C230.17 148.928 230.578 149.4 231.106 149.72C231.634 150.04 232.258 150.2 232.978 150.2C233.778 150.2 234.426 150.048 234.922 149.744C235.418 149.44 235.81 149.016 236.098 148.472L238.138 149.432C237.85 150.008 237.458 150.512 236.962 150.944C236.482 151.36 235.906 151.68 235.234 151.904C234.562 152.128 233.826 152.24 233.026 152.24ZM256.58 140H259.364L255.332 152H252.524L249.5 143.096L246.644 152H243.836L239.828 140H242.588L245.324 149.48L248.3 140H250.868L253.844 149.48L256.58 140ZM272.041 149.792H280.777V152H269.473V136.16H272.041V149.792ZM284.776 137.984C284.216 137.984 283.784 137.848 283.48 137.576C283.192 137.288 283.048 136.888 283.048 136.376C283.048 135.864 283.192 135.472 283.48 135.2C283.784 134.928 284.216 134.792 284.776 134.792C285.32 134.792 285.736 134.928 286.024 135.2C286.328 135.472 286.48 135.864 286.48 136.376C286.48 136.888 286.328 137.288 286.024 137.576C285.736 137.848 285.32 137.984 284.776 137.984ZM286.048 140V152H283.48V140H286.048ZM297.962 140H300.65L295.874 152H293.066L288.266 140H291.074L294.482 149.768L297.962 140ZM308.049 152.24C306.849 152.24 305.793 151.992 304.881 151.496C303.969 151 303.257 150.288 302.745 149.36C302.249 148.416 302.001 147.296 302.001 146C302.001 144.704 302.249 143.592 302.745 142.664C303.257 141.72 303.961 141 304.857 140.504C305.753 140.008 306.769 139.76 307.905 139.76C309.073 139.76 310.065 140 310.881 140.48C311.697 140.96 312.321 141.616 312.753 142.448C313.185 143.28 313.401 144.224 313.401 145.28C313.401 145.568 313.393 145.84 313.377 146.096C313.361 146.352 313.337 146.576 313.305 146.768H303.657V144.8H312.177L310.905 145.184C310.905 144.096 310.633 143.264 310.089 142.688C309.545 142.096 308.801 141.8 307.857 141.8C307.169 141.8 306.569 141.96 306.057 142.28C305.545 142.6 305.153 143.08 304.881 143.72C304.609 144.344 304.473 145.112 304.473 146.024C304.473 146.92 304.617 147.68 304.905 148.304C305.193 148.928 305.601 149.4 306.129 149.72C306.657 150.04 307.281 150.2 308.001 150.2C308.801 150.2 309.449 150.048 309.945 149.744C310.441 149.44 310.833 149.016 311.121 148.472L313.161 149.432C312.873 150.008 312.481 150.512 311.985 150.944C311.505 151.36 310.929 151.68 310.257 151.904C309.585 152.128 308.849 152.24 308.049 152.24ZM225.858 164.16C226.994 164.16 227.97 164.36 228.786 164.76C229.618 165.16 230.266 165.728 230.73 166.464C231.194 167.2 231.426 168.088 231.426 169.128C231.426 170.152 231.194 171.04 230.73 171.792C230.266 172.528 229.618 173.096 228.786 173.496C227.97 173.896 226.994 174.096 225.858 174.096H222.33V180H219.762V164.16H225.858ZM225.45 171.888C226.586 171.888 227.418 171.656 227.946 171.192C228.49 170.712 228.762 170.024 228.762 169.128C228.762 168.216 228.49 167.528 227.946 167.064C227.418 166.584 226.586 166.344 225.45 166.344H222.33V171.888H225.45ZM234.449 180V168H236.633L236.873 170.16C237.193 169.376 237.665 168.784 238.289 168.384C238.929 167.968 239.713 167.76 240.641 167.76C240.881 167.76 241.121 167.784 241.361 167.832C241.601 167.864 241.801 167.92 241.961 168L241.601 170.256C241.425 170.192 241.225 170.144 241.001 170.112C240.793 170.064 240.505 170.04 240.137 170.04C239.641 170.04 239.153 170.176 238.673 170.448C238.193 170.704 237.793 171.096 237.473 171.624C237.169 172.152 237.017 172.824 237.017 173.64V180H234.449ZM249.29 167.76C250.458 167.76 251.49 168.008 252.386 168.504C253.282 169 253.978 169.72 254.474 170.664C254.986 171.592 255.242 172.704 255.242 174C255.242 175.296 254.986 176.416 254.474 177.36C253.978 178.288 253.282 179 252.386 179.496C251.49 179.992 250.458 180.24 249.29 180.24C248.122 180.24 247.09 179.992 246.194 179.496C245.298 179 244.594 178.288 244.082 177.36C243.57 176.416 243.314 175.296 243.314 174C243.314 172.704 243.57 171.592 244.082 170.664C244.594 169.72 245.298 169 246.194 168.504C247.09 168.008 248.122 167.76 249.29 167.76ZM249.29 169.776C248.57 169.776 247.954 169.944 247.442 170.28C246.946 170.6 246.562 171.072 246.29 171.696C246.018 172.32 245.882 173.088 245.882 174C245.882 174.896 246.018 175.664 246.29 176.304C246.562 176.928 246.946 177.408 247.442 177.744C247.954 178.064 248.57 178.224 249.29 178.224C250.01 178.224 250.618 178.064 251.114 177.744C251.61 177.408 251.994 176.928 252.266 176.304C252.538 175.664 252.674 174.896 252.674 174C252.674 173.088 252.538 172.32 252.266 171.696C251.994 171.072 251.61 170.6 251.114 170.28C250.618 169.944 250.01 169.776 249.29 169.776ZM259.768 165.984C259.208 165.984 258.776 165.848 258.472 165.576C258.184 165.288 258.04 164.888 258.04 164.376C258.04 163.864 258.184 163.472 258.472 163.2C258.776 162.928 259.208 162.792 259.768 162.792C260.312 162.792 260.728 162.928 261.016 163.2C261.32 163.472 261.472 163.864 261.472 164.376C261.472 164.888 261.32 165.288 261.016 165.576C260.728 165.848 260.312 165.984 259.768 165.984ZM261.04 168V181.056C261.04 182.08 260.848 182.888 260.464 183.48C260.096 184.088 259.608 184.52 259 184.776C258.408 185.032 257.776 185.16 257.104 185.16C256.56 185.16 256.064 185.088 255.616 184.944C255.168 184.8 254.792 184.608 254.488 184.368L254.92 182.304C255.144 182.496 255.416 182.656 255.736 182.784C256.04 182.912 256.384 182.976 256.768 182.976C257.28 182.976 257.688 182.808 257.992 182.472C258.312 182.152 258.472 181.6 258.472 180.816V168H261.04ZM270.338 180.24C269.138 180.24 268.082 179.992 267.17 179.496C266.258 179 265.546 178.288 265.034 177.36C264.538 176.416 264.29 175.296 264.29 174C264.29 172.704 264.538 171.592 265.034 170.664C265.546 169.72 266.25 169 267.146 168.504C268.042 168.008 269.058 167.76 270.194 167.76C271.362 167.76 272.354 168 273.17 168.48C273.986 168.96 274.61 169.616 275.042 170.448C275.474 171.28 275.69 172.224 275.69 173.28C275.69 173.568 275.682 173.84 275.666 174.096C275.65 174.352 275.626 174.576 275.594 174.768H265.946V172.8H274.466L273.194 173.184C273.194 172.096 272.922 171.264 272.378 170.688C271.834 170.096 271.09 169.8 270.146 169.8C269.458 169.8 268.858 169.96 268.346 170.28C267.834 170.6 267.442 171.08 267.17 171.72C266.898 172.344 266.762 173.112 266.762 174.024C266.762 174.92 266.906 175.68 267.194 176.304C267.482 176.928 267.89 177.4 268.418 177.72C268.946 178.04 269.57 178.2 270.29 178.2C271.09 178.2 271.738 178.048 272.234 177.744C272.73 177.44 273.122 177.016 273.41 176.472L275.45 177.432C275.162 178.008 274.77 178.512 274.274 178.944C273.794 179.36 273.218 179.68 272.546 179.904C271.874 180.128 271.138 180.24 270.338 180.24ZM284.117 167.76C285.077 167.76 285.893 167.904 286.565 168.192C287.253 168.464 287.829 168.856 288.293 169.368C288.757 169.88 289.109 170.464 289.349 171.12L286.925 172.08C286.717 171.344 286.381 170.784 285.917 170.4C285.469 170 284.877 169.8 284.141 169.8C283.421 169.8 282.805 169.968 282.293 170.304C281.781 170.624 281.389 171.096 281.117 171.72C280.861 172.344 280.733 173.112 280.733 174.024C280.733 174.92 280.869 175.68 281.141 176.304C281.413 176.928 281.805 177.4 282.317 177.72C282.829 178.04 283.437 178.2 284.141 178.2C284.685 178.2 285.157 178.112 285.557 177.936C285.957 177.744 286.285 177.48 286.541 177.144C286.813 176.792 286.997 176.368 287.093 175.872L289.421 176.664C289.197 177.384 288.845 178.016 288.365 178.56C287.901 179.088 287.317 179.504 286.613 179.808C285.909 180.096 285.101 180.24 284.189 180.24C283.005 180.24 281.957 179.992 281.045 179.496C280.133 179 279.421 178.288 278.909 177.36C278.413 176.416 278.165 175.296 278.165 174C278.165 172.704 278.413 171.592 278.909 170.664C279.421 169.72 280.125 169 281.021 168.504C281.933 168.008 282.965 167.76 284.117 167.76ZM295.914 164.472V176.4C295.914 176.992 296.066 177.424 296.37 177.696C296.69 177.968 297.114 178.104 297.642 178.104C298.074 178.104 298.45 178.04 298.77 177.912C299.09 177.768 299.386 177.576 299.658 177.336L300.234 179.208C299.866 179.528 299.41 179.784 298.866 179.976C298.338 180.152 297.746 180.24 297.09 180.24C296.402 180.24 295.77 180.128 295.194 179.904C294.618 179.68 294.17 179.32 293.85 178.824C293.53 178.312 293.362 177.648 293.346 176.832V165.192L295.914 164.472ZM300.042 168V170.016H291.042V168H300.042Z" fill="#ABABAB"/>
</svg>
